<svg xmlns="http://www.w3.org/2000/svg" viewBox="0 0 500 500"><g id="freepik--Shadow--inject-105"><ellipse cx="258.5" cy="433.59" rx="206.83" ry="6.07" style="fill:#f0f0f0"></ellipse></g><g id="freepik--Plant--inject-105"><path d="M274.75,430.54l5.66-30.65H241.93l5.66,30.65a4.09,4.09,0,0,0,4,3.35h19.12A4.09,4.09,0,0,0,274.75,430.54Z" style="fill:#407BFF"></path><path d="M274.75,430.54l5.66-30.65H241.93l5.66,30.65a4.09,4.09,0,0,0,4,3.35h19.12A4.09,4.09,0,0,0,274.75,430.54Z" style="fill:#fff;opacity:0.4"></path><path d="M276.33,372.15c-5.06-1.34-12.8,9.18-15.15,19.43V376.65a30.82,30.82,0,0,1,7.52-8.59c6.36-5.18,12.22-11.83,7.14-13.16-4.75-1.26-11.87,7.94-14.66,17.55V353.27a19.94,19.94,0,0,1,4.31-4.69c4-3.27,7.7-7.46,4.5-8.3-2.78-.73-6.83,4.18-8.81,9.72v-6.22a29.15,29.15,0,0,1,2.06-7.47c2.95-6.51,4.54-13.22.65-12.72s-6.41,12.09-4.28,21v3.2c-1.44-6.51-6.37-13.26-9.59-12.41s.49,5,4.5,8.3a18.61,18.61,0,0,1,5.09,6.06v15.12c-2.31-10.31-10.1-20.94-15.2-19.6s.78,8,7.14,13.17a29.37,29.37,0,0,1,8.06,9.58v18.12c-2.47-10.12-10.06-20.33-15.06-19s-.72,6.19,6.43,12.07a33.82,33.82,0,0,1,8.63,10.5v10.21h1.57v-5.07a29.31,29.31,0,0,1,8-9.5C275.55,380.14,281.41,373.49,276.33,372.15Z" style="fill:#407BFF"></path><path d="M276.33,372.15c-5.06-1.34-12.8,9.18-15.15,19.43V376.65a30.82,30.82,0,0,1,7.52-8.59c6.36-5.18,12.22-11.83,7.14-13.16-4.75-1.26-11.87,7.94-14.66,17.55V353.27a19.94,19.94,0,0,1,4.31-4.69c4-3.27,7.7-7.46,4.5-8.3-2.78-.73-6.83,4.18-8.81,9.72v-6.22a29.15,29.15,0,0,1,2.06-7.47c2.95-6.51,4.54-13.22.65-12.72s-6.41,12.09-4.28,21v3.2c-1.44-6.51-6.37-13.26-9.59-12.41s.49,5,4.5,8.3a18.61,18.61,0,0,1,5.09,6.06v15.12c-2.31-10.31-10.1-20.94-15.2-19.6s.78,8,7.14,13.17a29.37,29.37,0,0,1,8.06,9.58v18.12c-2.47-10.12-10.06-20.33-15.06-19s-.72,6.19,6.43,12.07a33.82,33.82,0,0,1,8.63,10.5v10.21h1.57v-5.07a29.31,29.31,0,0,1,8-9.5C275.55,380.14,281.41,373.49,276.33,372.15Z" style="fill:#fff;opacity:0.2"></path><rect x="239.56" y="398.44" width="43.22" height="4.21" style="fill:#407BFF"></rect><rect x="239.56" y="398.44" width="43.22" height="4.21" style="fill:#fff;opacity:0.6000000000000001"></rect></g><g id="freepik--door-2--inject-105"><rect x="293.94" y="142.46" width="130.62" height="267.76" style="fill:#407BFF"></rect><rect x="293.94" y="142.46" width="130.62" height="267.76" style="opacity:0.2"></rect><rect x="227.28" y="216.76" width="263.93" height="122.97" transform="translate(637.49 -81) rotate(90)" style="fill:#407BFF"></rect><rect x="227.28" y="216.76" width="263.93" height="122.97" transform="translate(637.49 -81) rotate(90)" style="fill:#fff;opacity:0.2"></rect><path d="M319.35,273.47a6.81,6.81,0,1,1-6.81-6.81A6.8,6.8,0,0,1,319.35,273.47Z" style="fill:#407BFF"></path><path d="M319.35,273.47a6.81,6.81,0,1,1-6.81-6.81A6.8,6.8,0,0,1,319.35,273.47Z" style="opacity:0.2"></path><path d="M362.11,225.38a34.71,34.71,0,1,0,34.7,34.71A34.75,34.75,0,0,0,362.11,225.38Zm0,11.73a23,23,0,0,1,23,23A22.74,22.74,0,0,1,382,271.63l-31.39-31.38A22.66,22.66,0,0,1,362.11,237.11Zm0,45.95a23,23,0,0,1-23-23,22.68,22.68,0,0,1,3.13-11.55l31.38,31.39A22.74,22.74,0,0,1,362.11,283.06Z" style="fill:#407BFF"></path><g style="opacity:0.2"><path d="M362.11,225.38a34.71,34.71,0,1,0,34.7,34.71A34.75,34.75,0,0,0,362.11,225.38Zm0,11.73a23,23,0,0,1,23,23A22.74,22.74,0,0,1,382,271.63l-31.39-31.38A22.66,22.66,0,0,1,362.11,237.11Zm0,45.95a23,23,0,0,1-23-23,22.68,22.68,0,0,1,3.13-11.55l31.38,31.39A22.74,22.74,0,0,1,362.11,283.06Z"></path></g><polygon points="436.96 207.19 282.78 167.29 282.78 194.22 436.96 234.12 436.96 207.19" style="fill:#407BFF"></polygon><g style="opacity:0.4"><polygon points="436.96 207.19 436.96 234.12 282.78 194.22 282.78 167.29 436.96 207.19" style="fill:#fff"></polygon></g><circle cx="287.24" cy="172.84" r="1.14" style="fill:#263238"></circle><circle cx="287.24" cy="189.81" r="1.14" style="fill:#263238"></circle><circle cx="432.85" cy="211.05" r="1.14" style="fill:#263238"></circle><circle cx="432.85" cy="228.03" r="1.14" style="fill:#263238"></circle><path d="M404.14,204.34l-.12,0L300.27,177.47a.5.5,0,0,1-.36-.61.51.51,0,0,1,.61-.36l103.75,26.85a.5.5,0,0,1,.35.61A.49.49,0,0,1,404.14,204.34Z" style="opacity:0.2"></path><path d="M349.16,204.79l-.12,0L295.43,190.9a.5.5,0,1,1,.25-1l53.61,13.87a.5.5,0,0,1-.13,1Z" style="opacity:0.2"></path><g style="opacity:0.2"><path d="M437,216.44v1l-24.68-6.39a.5.5,0,0,1,.25-1Z"></path></g><path d="M411.12,214.23H411l-53.88-13.94a.52.52,0,0,1-.36-.61.5.5,0,0,1,.61-.36l53.88,13.94a.5.5,0,0,1,.36.61A.49.49,0,0,1,411.12,214.23Z" style="opacity:0.2"></path><g style="opacity:0.2"><path d="M346.29,197.28h-.13l-25.51-6.6a.5.5,0,0,1-.35-.61.49.49,0,0,1,.6-.36l25.51,6.6a.5.5,0,0,1-.12,1Z"></path></g><g style="opacity:0.2"><path d="M424.66,225.07h-.12L399,218.46a.5.5,0,0,1,.25-1l25.51,6.6a.5.5,0,0,1-.13,1Z"></path></g><polygon points="436.96 316.77 282.78 356.67 282.78 329.74 436.96 289.84 436.96 316.77" style="fill:#407BFF"></polygon><g style="opacity:0.4"><polygon points="436.96 316.77 436.96 289.84 282.78 329.74 282.78 356.67 436.96 316.77" style="fill:#fff"></polygon></g><circle cx="287.24" cy="351.12" r="1.14" style="fill:#263238"></circle><circle cx="287.24" cy="334.15" r="1.14" style="fill:#263238"></circle><circle cx="432.85" cy="312.91" r="1.14" style="fill:#263238"></circle><circle cx="432.85" cy="295.94" r="1.14" style="fill:#263238"></circle><path d="M300.4,347.47a.5.5,0,0,1-.49-.37.5.5,0,0,1,.36-.61L404,319.64a.49.49,0,0,1,.6.36.5.5,0,0,1-.35.61L300.52,347.46Z" style="opacity:0.2"></path><path d="M295.55,334.05a.5.5,0,0,1-.48-.38.49.49,0,0,1,.36-.6L349,319.19a.5.5,0,1,1,.25,1L295.68,334Z" style="opacity:0.2"></path><g style="opacity:0.2"><path d="M437,307.52v-1l-24.68,6.39a.5.5,0,0,0,.25,1Z"></path></g><path d="M357.24,324.67a.51.51,0,0,1-.49-.38.5.5,0,0,1,.36-.6L411,309.74a.5.5,0,0,1,.25,1l-53.88,13.94A.25.25,0,0,1,357.24,324.67Z" style="opacity:0.2"></path><g style="opacity:0.2"><path d="M346.29,326.68h-.13l-25.51,6.61a.5.5,0,0,0,.25,1l25.51-6.6a.5.5,0,0,0-.12-1Z"></path></g><g style="opacity:0.2"><path d="M424.66,298.89h-.12L399,305.51a.49.49,0,0,0-.36.6.5.5,0,0,0,.61.36l25.51-6.6a.5.5,0,0,0-.13-1Z"></path></g></g><g id="freepik--door-1--inject-105"><rect x="98.31" y="142.46" width="130.62" height="267.76" style="fill:#407BFF"></rect><rect x="98.31" y="142.46" width="130.62" height="267.76" style="opacity:0.2"></rect><rect x="33.57" y="214.85" width="260.11" height="122.97" transform="translate(439.96 112.72) rotate(90)" style="fill:#407BFF"></rect><rect x="102.14" y="146.28" width="122.97" height="263.93" style="fill:#fff;opacity:0.9"></rect><rect x="125.99" y="146.28" width="99.12" height="263.93" style="opacity:0.1"></rect><polygon points="56.38 129.01 56.38 410.21 98.31 410.21 98.31 142.46 56.38 129.01" style="fill:#407BFF"></polygon><polygon points="56.38 129.01 56.38 410.21 98.31 410.21 98.31 142.46 56.38 129.01" style="fill:#fff;opacity:0.2"></polygon><path d="M67.35,273.33c0,3.76-1.42,6.81-3.16,6.81S61,277.09,61,273.33s1.42-6.81,3.17-6.81S67.35,269.57,67.35,273.33Z" style="fill:#407BFF"></path><rect x="52.59" y="129.01" width="3.8" height="281.2" style="fill:#407BFF"></rect><rect x="52.59" y="129.01" width="3.8" height="281.2" style="opacity:0.2"></rect></g><g id="freepik--character-2--inject-105"><path d="M428.51,201.59c2.77,4,5.36,8,7.8,12.16,1.22,2.09,2.4,4.21,3.55,6.39.57,1.1,1.13,2.21,1.67,3.36a38,38,0,0,1,1.58,3.77c.13.42.25.73.38,1.25l.1.36,0,.2.08.37a7.33,7.33,0,0,1,.09,1.45,8.29,8.29,0,0,1-1.16,3.77,16.33,16.33,0,0,1-3.06,3.72,45.24,45.24,0,0,1-6.19,4.75,96.38,96.38,0,0,1-12.91,7.05l-2.74-4.71c3.68-2.81,7.39-5.74,10.78-8.73a46.73,46.73,0,0,0,4.56-4.57,8.6,8.6,0,0,0,1.25-1.91c.07-.16-.05-.22-.12.39a2.18,2.18,0,0,0,0,.56l0,.16s0,0,0,0l0-.07-.2-.44c-.38-.76-.91-1.72-1.46-2.66s-1.15-1.91-1.76-2.87c-1.21-1.94-2.48-3.88-3.76-5.83-2.56-3.88-5.14-7.84-7.64-11.76Z" style="fill:#ffc3bd"></path><polygon points="432.75 417.92 430.75 427.27 425.79 427.27 425.28 417.92 432.75 417.92" style="fill:#ffc3bd"></polygon><path d="M411.6,433.89c.18-3.05,1.5-4,3.16-4.06s7.84-2.17,7.84-2.17,1.23-1.93,2.35-2.33,2.26.76,2.26.76l3.1-.38s.89-1.39,1.57-.17c1.06,1.89,1.1,7.12,1,8.35Z" style="fill:#263238"></path><path d="M412,433.09h3.87l16.9-.09c.22,0,.17-.33-.05-.32h-1.14s0,0,0,0a3.05,3.05,0,0,1,1-4.43c.18-.1,0-.39-.21-.28a3.33,3.33,0,0,0-1.13,4.75h-2.38l-16.9.09C411.71,432.77,411.77,433.1,412,433.09Z" style="fill:#407BFF"></path><path d="M437.6,295.35a312.86,312.86,0,0,1-1.81,37.32c-.46,4.56-1,9.42-1.69,14.6,7.49,30-1.26,73.21-1.26,73.21l-7.67-.17S418,372,415.69,346.65c-3.84-41.48-3.81-81-3.81-81l20.92-1.79S437.1,271.81,437.6,295.35Z" style="fill:#407BFF"></path><path d="M437.6,295.35a312.86,312.86,0,0,1-1.81,37.32c-.46,4.56-1,9.42-1.69,14.6,7.49,30-1.26,73.21-1.26,73.21l-7.67-.17S418,372,415.69,346.65c-3.84-41.48-3.81-81-3.81-81l20.92-1.79S437.1,271.81,437.6,295.35Z" style="fill:#fff;opacity:0.6000000000000001"></path><path d="M413.84,322.76c5.09-13,1.94-36,1.94-36l-2.86,18.81Z" style="opacity:0.2"></path><polygon points="424.52 422.1 423.87 418.85 434.07 418.85 433.91 422.1 424.52 422.1" style="fill:#263238"></polygon><polygon points="399.04 417.81 397.06 427.23 392.11 427.23 391.57 417.81 399.04 417.81" style="fill:#ffc3bd"></polygon><path d="M377.94,433.89c.16-3.07,1.48-4,3.14-4.09s7.84-2.18,7.84-2.18,1.22-1.95,2.34-2.34,2.27.76,2.27.76l3.1-.38s.88-1.4,1.57-.17c1.05,1.9,1.11,7.16,1.06,8.4Z" style="fill:#263238"></path><path d="M378.32,433.09l3.86,0,16.91-.09c.21,0,.16-.33-.06-.32h-1.14a.08.08,0,0,0,0,0,3.08,3.08,0,0,1,1-4.46c.18-.1,0-.39-.21-.28a3.35,3.35,0,0,0-1.11,4.78l-2.39,0-16.9.08C378.05,432.76,378.1,433.09,378.32,433.09Z" style="fill:#407BFF"></path><path d="M388.65,346.07c.51,25.48,2.56,74.16,2.56,74.16l7.65.16s12.81-43.55,8.15-73.69q1.73-7.81,3.06-14.69.82-4.23,1.5-8.13c1.55-8.87,2.58-16.47,3.24-23,.24-2.29.43-4.43.58-6.45,1.71-23.69-2.65-28.9-2.65-28.9l-24.09.09S387.77,301.67,388.65,346.07Z" style="fill:#407BFF"></path><path d="M388.65,346.07c.51,25.48,2.56,74.16,2.56,74.16l7.65.16s12.81-43.55,8.15-73.69q1.73-7.81,3.06-14.69.82-4.23,1.5-8.13c1.55-8.87,2.58-16.47,3.24-23,.24-2.29.43-4.43.58-6.45,1.71-23.69-2.65-28.9-2.65-28.9l-24.09.09S387.77,301.67,388.65,346.07Z" style="fill:#fff;opacity:0.6000000000000001"></path><polygon points="390.39 422.03 390.04 418.75 400.24 418.75 399.78 422.03 390.39 422.03" style="fill:#263238"></polygon><path d="M386.92,175.25a.41.41,0,0,1-.38-.08.4.4,0,0,1,0-.56,3.89,3.89,0,0,1,3.34-1.3.39.39,0,0,1,.32.45.38.38,0,0,1-.45.32,3.16,3.16,0,0,0-2.63,1.06.34.34,0,0,1-.18.11" style="fill:#263238"></path><path d="M387.59,177a17.4,17.4,0,0,1-1.75,4.45,2.81,2.81,0,0,0,2.37.11Z" style="fill:#ed847e"></path><path d="M388.57,177.19c.15.65-.06,1.26-.49,1.36s-.89-.34-1.05-1,.06-1.26.48-1.37.9.35,1.06,1" style="fill:#263238"></path><path d="M387.71,176.19l-1.67-.08s1.09,1,1.67.08" style="fill:#263238"></path><path d="M388.22,166.52s-3.73.78-1,6.44l3-5.53Z" style="fill:#263238"></path><path d="M404.16,161.35s-2.6-12.38,7.34-11,7.82,9.69,7.82,9.69,6,.47,3,7.24-13.55,1.92-13.55,1.92C406.26,167.37,404.88,164.64,404.16,161.35Z" style="fill:#263238"></path><path d="M406.87,197.93a10.37,10.37,0,0,0-6.11.78c1.35-2.29.42-5-.87-7.49l7.36-10.09c.21,5.06,1.38,14.16,5.53,16.59C412.78,197.72,414.13,199,406.87,197.93Z" style="fill:#ffc3bd"></path><g style="opacity:0.2"><path d="M404.25,185.24l-4.36,6a15.53,15.53,0,0,1,1.1,2.57c2-.79,4.29-3.74,4-5.95a7.43,7.43,0,0,0-.74-2.59"></path></g><path d="M409.52,171.5c.59,8,1,11.39-2.44,16-5.2,7-15.17,6-18.15-1.73-2.68-6.9-3.21-18.85,4.14-23.07a11,11,0,0,1,16.45,8.79" style="fill:#ffc3bd"></path><path d="M397.54,159.42s7.35-1.7,12.17,3.08,5.65,16.8-2.25,24.5c.13,2.43-10.42,3.19-13.4-3.75-1.08-2.52-2.69-4.2-3.1-12.76l-3-.86C385.47,168.43,386.16,158.22,397.54,159.42Z" style="fill:#263238"></path><path d="M398,177.36a5.82,5.82,0,0,1-2.59,3.66c-1.75,1.09-3.19-.34-3.19-2.29,0-1.75.93-4.43,2.91-4.73a2.63,2.63,0,0,1,2.87,3.36" style="fill:#ffc3bd"></path><path d="M392.85,181.31a1.33,1.33,0,1,0,2.61-.53,1.32,1.32,0,0,0-1.56-1A1.34,1.34,0,0,0,392.85,181.31Z" style="fill:#fff"></path><path d="M412.65,170.59h0c-9.6-1.31-9.07-11.26-9.07-11.36a.21.21,0,0,1,.24-.2.21.21,0,0,1,.2.23c0,.39-.5,9.63,8.69,10.89a.22.22,0,0,1,.19.25A.24.24,0,0,1,412.65,170.59Z" style="fill:#407BFF"></path><path d="M435,261.54c2.92,12.13-44.87,8.09-46.8,5.68S391.79,236,392.07,229v0c.26-6.93-6.4-15.14-3.61-20.16a22.69,22.69,0,0,1,5.12-5.55,64.72,64.72,0,0,1,5.28-3.87l.33-.23h0l.9-.58,1-.62A86.42,86.42,0,0,1,414,196.53h1.15a30.12,30.12,0,0,1,7.41.74c7.82,2,8.81,9.06,8.76,16.9S433.74,256.35,435,261.54Z" style="fill:#263238"></path><g style="opacity:0.2"><path d="M415.1,196.52l0,.07c-.43,1.43-5.42,5.09-9.85,4.75a12.48,12.48,0,0,1-6.37-2l.33-.23h0l.9-.58a19.2,19.2,0,0,0,6.55,1.1,10.38,10.38,0,0,0,7.28-3.12h1.16Z"></path></g><path d="M403.83,215.3c-1.05,9.26-8.18,12.59-11.76,13.68v0c.26-6.93-6.4-15.14-3.61-20.16a22.69,22.69,0,0,1,5.12-5.55C398.33,204.37,404.74,207.35,403.83,215.3Z" style="fill:#ffc3bd"></path><path d="M396.44,219.42a16.77,16.77,0,0,1-.85,8.1,19.36,19.36,0,0,1-3.52,1.46v0a11.92,11.92,0,0,0,0-1.46Z" style="opacity:0.2"></path><path d="M400.17,198.69s-.26-2,.9-2.54,6.07-3.92,8-4.06,3.6,4.46,4.91,4.45S403.34,199.82,400.17,198.69Z" style="fill:#263238"></path><path d="M411.05,258.06h3.13s1.42,8.75-3.58,12.92-16.43,3.33-16.43,3.33Z" style="fill:#407BFF"></path><path d="M382.68,258.06h28.37s.88,13.09-7.38,15.25C396.19,275.27,381.26,276.56,382.68,258.06Z" style="fill:#407BFF"></path><path d="M410.57,264.36c-.06.28-.12.57-.19.86-.86,3.44-2.71,7-6.71,8.09-6.28,1.65-17.82,2.82-20.51-7.82-.07-.28-.14-.58-.19-.89a24.16,24.16,0,0,1-.29-6.54h28.37A26.42,26.42,0,0,1,410.57,264.36Z" style="fill:#fff;opacity:0.4"></path><path d="M396,262.69a.85.85,0,1,1-.84-.84A.85.85,0,0,1,396,262.69Z" style="fill:#407BFF"></path><path d="M410.57,264.36c-.06.28-.12.57-.19.86A45.28,45.28,0,0,1,396.06,268h-.63a36.94,36.94,0,0,1-12.27-2.51c-.07-.28-.14-.58-.19-.89a35.84,35.84,0,0,0,12.48,2.65C401.79,267.4,408.41,265.16,410.57,264.36Z" style="fill:#407BFF"></path><path d="M389.49,218.66c-3.32,15.56-5.17,36.28-5.44,39.4h-1c.26-3.19,2.18-25.23,5.82-41.16C389.06,217.48,389.28,218.06,389.49,218.66Z" style="fill:#407BFF"></path><path d="M389.49,218.66c-3.32,15.56-5.17,36.28-5.44,39.4h-1c.26-3.19,2.18-25.23,5.82-41.16C389.06,217.48,389.28,218.06,389.49,218.66Z" style="fill:#fff;opacity:0.4"></path><path d="M413.79,258.06h-1c-2-19.07-7.67-54.41-14.92-56.84a1.86,1.86,0,0,0-1.68.28,6.28,6.28,0,0,0-1.75,2l-.85-.22-.27.22a8,8,0,0,1,2.32-2.81,2.84,2.84,0,0,1,2.55-.38C407.46,203.39,413,251.28,413.79,258.06Z" style="fill:#407BFF"></path><path d="M413.79,258.06h-1c-2-19.07-7.67-54.41-14.92-56.84a1.86,1.86,0,0,0-1.68.28,6.28,6.28,0,0,0-1.75,2l-.85-.22-.27.22a8,8,0,0,1,2.32-2.81,2.84,2.84,0,0,1,2.55-.38C407.46,203.39,413,251.28,413.79,258.06Z" style="fill:#fff;opacity:0.4"></path><path d="M398.55,213.32c-1.73,5.69-3.61,11.27-5.69,16.83-1,2.79-2.11,5.55-3.24,8.33s-2.31,5.51-3.82,8.44l-.67,1.18-.17.29-.08.14,0,.08-.11.17c-.15.23-.3.44-.48.68a10,10,0,0,1-.71.75,6.69,6.69,0,0,1-1,.76,6.46,6.46,0,0,1-1.34.58,5.75,5.75,0,0,1-1.44.23H379a5.21,5.21,0,0,1-.59-.09,6.88,6.88,0,0,1-3-1.33,12.18,12.18,0,0,1-2.39-2.45,21.67,21.67,0,0,1-1.48-2.19,66.92,66.92,0,0,1-4.19-8.39,157.86,157.86,0,0,1-6-16.92l5.07-2c2.65,5.15,5.39,10.34,8.24,15.28a73.48,73.48,0,0,0,4.46,6.94c.39.5.78,1,1.13,1.36a2.5,2.5,0,0,0,.73.63s-.16-.22-1-.41l-.32,0a3,3,0,0,0-.42,0,3.84,3.84,0,0,0-.91.15,3.13,3.13,0,0,0-.84.36,2.54,2.54,0,0,0-.58.42,2.24,2.24,0,0,0-.34.35,1.59,1.59,0,0,0-.18.22l0,.06,0,0,0-.1.08-.2.35-.77c1-2.38,2-5.14,2.9-7.85s1.83-5.47,2.76-8.22c1.8-5.52,3.65-11.08,5.53-16.57Z" style="fill:#ffc3bd"></path><path d="M366.47,218.52a38.32,38.32,0,0,0,.87-4.71c0-1.06-1.85-2.16-1.85-2.16s-.15-2.65-1.59-3.09-5.81.75-6.32,3.8c-.27,1.63,3.89,8.08,3.89,8.08Z" style="fill:#ffc3bd"></path></g><g id="freepik--character-1--inject-105"><path d="M156.26,205.69l-9.13,18.6-2.49,5.14q-1.11,2.3-2.18,4.58c-1.38,2.94-2.69,5.86-3.87,8.73-.58,1.47-1.14,3-1.45,4.09a26.73,26.73,0,0,0-.69,4.22c-.31,3.15-.42,6.54-.47,9.93,0,6.79.06,13.77.22,20.67l-6.86,1a183.32,183.32,0,0,1-3.93-21,100.1,100.1,0,0,1-.83-11,38.11,38.11,0,0,1,.38-6.2,44.62,44.62,0,0,1,1.55-5.94c1.17-3.58,2.42-6.94,3.78-10.26s2.74-6.59,4.2-9.81c2.91-6.47,6-12.77,9.31-19.05Z" style="fill:#407BFF"></path><path d="M144.64,204.88v24.55q-1.11,2.3-2.18,4.58Z" style="opacity:0.2"></path><path d="M122.52,294.2v-6.27a.39.39,0,0,1,.39-.39h3.4v-1h-3.4a1.4,1.4,0,0,0-1.4,1.4v6.27Z" style="fill:#263238"></path><path d="M146,287.93v6.27h1v-6.27a1.4,1.4,0,0,0-1.4-1.4h-3.4v1h3.4A.4.4,0,0,1,146,287.93Z" style="fill:#263238"></path><path d="M160.37,296.85v31.6a2.66,2.66,0,0,1-2.66,2.66H112.1a2.67,2.67,0,0,1-2.66-2.66v-31.6a2.66,2.66,0,0,1,2.66-2.65h45.61A2.65,2.65,0,0,1,160.37,296.85Z" style="fill:#263238"></path><g style="opacity:0.5"><path d="M160.37,296.85v31.6a2.66,2.66,0,0,1-2.66,2.66H112.1a2.67,2.67,0,0,1-2.66-2.66v-31.6a2.66,2.66,0,0,1,2.66-2.65h45.61A2.65,2.65,0,0,1,160.37,296.85Z" style="fill:#fff"></path></g><rect x="151.66" y="294.2" width="2.02" height="36.91" style="fill:#263238"></rect><rect x="116.14" y="294.2" width="2.02" height="36.91" style="fill:#263238"></rect><rect x="124.91" y="285.35" width="18.37" height="3.37" style="fill:#263238"></rect><rect x="124.91" y="285.35" width="18.37" height="3.37" style="fill:#fff;opacity:0.30000000000000004"></rect><path d="M136.26,280.71s4.09,3.14,4.56,4.4-1.44,4.27-2.37,4.22c-1.31-.08.38-3.41.38-3.41l-8-.18s-1.47-.55-1.45-3.12A7.9,7.9,0,0,1,136.26,280.71Z" style="fill:#b55b52"></path><path d="M140,288.24s.88,1.93-.25,2.47-7.73.27-9.3-.55-.72-3.09.48-3.38S138.5,285.76,140,288.24Z" style="fill:#b55b52"></path><polygon points="122.97 409 119.98 422.89 125.49 424.55 131.04 412.14 122.97 409" style="fill:#b55b52"></polygon><path d="M124.14,422.89s2.5-3,3.46-2.42.5,4.79.5,4.79,5.25,3.11,6.81,3.55,2.64,1.61,2.18,4.74l-19.31-4.17s1.63-6.94,1.92-8.12,1.68.67,1.68.67Z" style="fill:#263238"></path><path d="M170.06,269c-.81,4.29-1.23,14.6-1.76,26.62-.37,8.25-.79,17.29-1.44,25.73-.81,10.81-2,20.64-3.84,26.53-6.57,20.76-32.48,67.28-32.48,67.28l-9.07-2s14.44-49.86,16-55.46,5-25.67,5-47.41c0-34.18,0-42.2,0-42.2Z" style="fill:#263238"></path><path d="M169.59,297.61c-.85,8.21-1.8,17.21-2.94,25.6-2.57-16.09-3.4-40-3.4-40Z" style="opacity:0.2"></path><polygon points="120.62 413.39 131.26 415.69 132.77 412.46 121.1 409.8 120.62 413.39" style="fill:#407BFF"></polygon><polygon points="171.37 412.87 171.37 427.08 177.11 427.54 179.92 414.23 171.37 412.87" style="fill:#b55b52"></polygon><path d="M175.44,426.2s1.8-3.47,2.87-3.1,1.5,4.58,1.5,4.58,5.78,1.93,7.4,2,2.92,1,3.13,4.18H170.59s.13-7.13.17-8.35,1.77.3,1.77.3Z" style="fill:#263238"></path><path d="M164.53,269.66c-2.22,1.48-.94,11.17-.6,15.35.65,8,5.66,19.81,6.35,30.16.8,12,1.37,24,1.09,32.31-.74,21.39-.57,69.85-.57,69.85h9.27S191,369.16,193,347.48c1.7-18,.28-69.7,0-80.9Z" style="fill:#263238"></path><polygon points="169.99 417.66 180.88 417.66 181.67 414.19 169.71 414.04 169.99 417.66" style="fill:#407BFF"></polygon><path d="M187.76,173.22c.11.66-.15,1.25-.58,1.32s-.87-.41-1-1.07.16-1.25.59-1.32.87.41,1,1.07" style="fill:#263238"></path><path d="M186.85,174a21.27,21.27,0,0,0,2.94,4.95,3.39,3.39,0,0,1-2.79.61Z" style="fill:#a02724"></path><path d="M184.32,169.73a.32.32,0,0,1-.21-.13.34.34,0,0,1,.06-.48,3.42,3.42,0,0,1,3.1-.62.35.35,0,0,1,.21.44.35.35,0,0,1-.44.21h0a2.74,2.74,0,0,0-2.45.51A.31.31,0,0,1,184.32,169.73Z" style="fill:#263238"></path><path d="M175.79,189.81l-8.41-12.28c-.94,6-3.33,15-5.59,18.45,0,0,2.15,5.66,12.85,2.05C174.64,198,173.18,193.42,175.79,189.81Z" style="fill:#b55b52"></path><path d="M160.91,193.31s1-3.42,3.77-4.28c0,0,7.57,2.22,10.33,2.14a3.36,3.36,0,0,1,1.08,2.64S163.92,194.18,160.91,193.31Z" style="fill:#407BFF"></path><path d="M166.91,172.22c.64,7.21.64,11.46,4.39,15.07,5.64,5.43,14.47,1.89,16-5.37,1.38-6.53.1-17.23-7-19.91A9.87,9.87,0,0,0,166.91,172.22Z" style="fill:#b55b52"></path><path d="M187,165.05c-3.83,5.34-1.06,7.17-2.09,9.44s-3.05-2.74-5.09,2.85-9.6,7.09-9.6,7.09a4.91,4.91,0,0,0-3.62-1.38c-15.57-16.93-1.34-20.5-1.34-20.5s.64-2.86,4.91-4.14c3.41-1,4.12-.26,9-1s7.21-1.37,9.55.7C190.57,159.79,187,165.05,187,165.05Z" style="fill:#263238"></path><path d="M178.58,174.56a8.18,8.18,0,0,0,2.15,4.8c1.62,1.72,3.26.59,3.5-1.54.21-1.93-.37-5.15-2.34-6.07S178.41,172.4,178.58,174.56Z" style="fill:#b55b52"></path><path d="M196.72,252.68c-.09,4.41-.31,9-.69,13.71-.14,1.81-.31,3.64-.5,5.5-23.21,8.17-55.32-.8-55.32-.8,1.06-4.55,2.95-18.17,3.75-28.12,1-12.39,1.15-22-.74-35.45-.92-6.53.54-12.63,6.78-13.44l2.76-.31a111.12,111.12,0,0,1,32.44.89,11.56,11.56,0,0,1,9.21,10.65C195.34,217.3,197.16,233.44,196.72,252.68Z" style="fill:#407BFF"></path><path d="M160.91,193.31s1.71,2.94,6.9,2.94a13.05,13.05,0,0,0,8.29-2.81l1.78.17s-5.58,4.64-11,3.95-6-4.25-6-4.25" style="opacity:0.2"></path><path d="M196.72,252.68c-.09,4.41-.31,9-.69,13.71-3.08-2.66-7.52-7.19-9.18-12.51-2.65-8.5-5-35.48-5-35.48Z" style="opacity:0.2"></path><path d="M193.85,203.23c1,6.59,2,13.28,2.92,19.9.48,3.31.94,6.62,1.46,9.9s1.05,6.52,1.66,9.61a36.42,36.42,0,0,0,1.05,4.21l.33,1,.43,1c.26.69.59,1.41.92,2.13,1.31,2.87,2.85,5.8,4.4,8.73,3.16,5.84,6.41,11.85,9.73,17.68l-4.27,4.21c-5.29-4.29-10.09-10.8-14.15-16.44-2-2.82-4-5.71-5.86-8.82-.47-.78-.94-1.55-1.38-2.41l-.67-1.26c-.22-.44-.43-.93-.64-1.39a48.66,48.66,0,0,1-2-5.49,202.54,202.54,0,0,1-4.73-20.39c-1.28-6.76-2.29-13.49-3.09-20.33Z" style="fill:#407BFF"></path><path d="M212.48,281.59s1,10.59,2.9,10.74c.51,0,.71-1.12.46-3.91,0,0,2.74,6.1,3.51,6.76,3.7,3.21,3.51-6.15,2.08-9.91a38.94,38.94,0,0,0-4.68-7.89Z" style="fill:#b55b52"></path></g></svg>
