<svg width="2059" height="1851" viewBox="0 0 2059 1851" fill="none" xmlns="http://www.w3.org/2000/svg">
<path d="M1762.87 550.376H103.856V651.478H1762.87V550.376Z" fill="#263238"/>
<path d="M225.667 48.8293V579.511" stroke="#263238" stroke-width="2" stroke-miterlimit="10"/>
<path d="M461.586 48.8293V579.511" stroke="#263238" stroke-width="2" stroke-miterlimit="10"/>
<path d="M697.466 48.8293V579.511" stroke="#263238" stroke-width="2" stroke-miterlimit="10"/>
<path d="M933.386 48.8293V579.511" stroke="#263238" stroke-width="2" stroke-miterlimit="10"/>
<path d="M1169.26 48.8293V579.511" stroke="#263238" stroke-width="2" stroke-miterlimit="10"/>
<path d="M1405.19 48.8293V579.511" stroke="#263238" stroke-width="2" stroke-miterlimit="10"/>
<path d="M1641.06 48.8293V579.511" stroke="#263238" stroke-width="2" stroke-miterlimit="10"/>
<path d="M107.727 184.915H1759" stroke="#263238" stroke-width="2" stroke-miterlimit="10"/>
<path d="M107.727 387.081H1759" stroke="#263238" stroke-width="2" stroke-miterlimit="10"/>
<path d="M2012.1 46.349H1592.02V651.441H2012.1V46.349Z" fill="#263238"/>
<path d="M225.172 1670.16V1561.28" stroke="#407BFF" stroke-linecap="round" stroke-linejoin="round"/>
<path d="M200.464 1669.82H249.303L237.114 1789.88H212.694L200.464 1669.82Z" fill="#263238" stroke="#263238" stroke-linecap="round" stroke-linejoin="round"/>
<path d="M224.225 1660.35C220.31 1655.44 215.373 1651.27 209.688 1648.06C202.785 1645.37 195.343 1643.99 187.822 1643.98C187.822 1643.98 195.111 1667.71 224.225 1660.35Z" fill="#407BFF"/>
<path d="M225.172 1660.35C229.086 1655.44 234.023 1651.27 239.708 1648.06C246.612 1645.37 254.053 1643.99 261.575 1643.98C261.575 1643.98 254.286 1667.71 225.172 1660.35Z" fill="#407BFF"/>
<path d="M224.225 1630.88C220.322 1625.97 215.383 1621.79 209.688 1618.59C202.791 1615.88 195.347 1614.48 187.822 1614.48C187.822 1614.48 195.111 1638.25 224.225 1630.88Z" fill="#407BFF"/>
<path d="M225.172 1630.88C229.074 1625.97 234.014 1621.79 239.708 1618.59C246.605 1615.88 254.049 1614.48 261.575 1614.48C261.575 1614.48 254.286 1638.25 225.172 1630.88Z" fill="#407BFF"/>
<path d="M224.225 1601.37C220.316 1596.48 215.377 1592.31 209.688 1589.12C202.791 1586.41 195.347 1585.01 187.822 1585.01C187.822 1585.01 195.111 1608.74 224.225 1601.37Z" fill="#407BFF"/>
<path d="M225.172 1601.37C229.081 1596.48 234.019 1592.31 239.708 1589.12C246.605 1586.41 254.049 1585.01 261.575 1585.01C261.575 1585.01 254.286 1608.74 225.172 1601.37Z" fill="#407BFF"/>
<path d="M224.225 1571.91C220.31 1567 215.373 1562.83 209.688 1559.62C202.785 1556.93 195.343 1555.55 187.822 1555.54C187.822 1555.54 195.111 1579.27 224.225 1571.91Z" fill="#407BFF"/>
<path d="M225.172 1571.91C229.086 1567 234.023 1562.83 239.708 1559.62C246.612 1556.93 254.053 1555.55 261.575 1555.54C261.575 1555.54 254.286 1579.27 225.172 1571.91Z" fill="#407BFF"/>
<path d="M225.172 1561.28C221.038 1556.21 218.402 1550.27 217.513 1544.03C217.938 1537.28 219.9 1530.67 223.278 1524.63C223.278 1524.63 245.597 1541.22 225.172 1561.28Z" fill="#407BFF"/>
<path d="M1854.13 1670.16V1561.28" stroke="#407BFF" stroke-linecap="round" stroke-linejoin="round"/>
<path d="M1829.46 1669.82H1878.3L1866.07 1789.88H1841.65L1829.46 1669.82Z" fill="#263238" stroke="#263238" stroke-linecap="round" stroke-linejoin="round"/>
<path d="M1853.1 1660.35C1849.16 1655.45 1844.22 1651.27 1838.52 1648.06C1831.63 1645.37 1824.2 1643.99 1816.7 1643.98C1816.7 1643.98 1824.27 1667.71 1853.1 1660.35Z" fill="#407BFF"/>
<path d="M1854.13 1660.35C1858.06 1655.45 1863.01 1651.27 1868.71 1648.06C1875.61 1645.37 1883.05 1643.99 1890.57 1643.98C1890.57 1643.98 1883.28 1667.71 1854.13 1660.35Z" fill="#407BFF"/>
<path d="M1853.1 1630.88C1849.18 1625.97 1844.22 1621.79 1838.52 1618.59C1831.64 1615.88 1824.21 1614.48 1816.7 1614.48C1816.7 1614.48 1824.27 1638.25 1853.1 1630.88Z" fill="#407BFF"/>
<path d="M1854.13 1630.88C1858.05 1625.97 1863 1621.79 1868.71 1618.59C1875.6 1615.88 1883.05 1614.48 1890.57 1614.48C1890.57 1614.48 1883.28 1638.25 1854.13 1630.88Z" fill="#407BFF"/>
<path d="M1853.1 1601.37C1849.17 1596.48 1844.22 1592.32 1838.52 1589.12C1831.64 1586.41 1824.21 1585.02 1816.7 1585.01C1816.7 1585.01 1824.27 1608.74 1853.1 1601.37Z" fill="#407BFF"/>
<path d="M1854.13 1601.37C1858.06 1596.48 1863.01 1592.32 1868.71 1589.12C1875.6 1586.41 1883.05 1585.01 1890.57 1585.01C1890.57 1585.01 1883.28 1608.74 1854.13 1601.37Z" fill="#407BFF"/>
<path d="M1853.1 1571.91C1849.16 1567.01 1844.22 1562.83 1838.52 1559.62C1831.63 1556.93 1824.2 1555.55 1816.7 1555.54C1816.7 1555.54 1824.27 1579.27 1853.1 1571.91Z" fill="#407BFF"/>
<path d="M1854.13 1571.91C1858.06 1567.01 1863.01 1562.83 1868.71 1559.62C1875.61 1556.93 1883.05 1555.55 1890.57 1555.54C1890.57 1555.54 1883.28 1579.27 1854.13 1571.91Z" fill="#407BFF"/>
<path d="M1854.13 1561.28C1849.99 1556.21 1847.36 1550.27 1846.47 1544.03C1846.9 1537.27 1848.88 1530.67 1852.28 1524.63C1852.28 1524.63 1874.6 1541.22 1854.13 1561.28Z" fill="#407BFF"/>
<path d="M1646.54 524.462V415.55" stroke="#407BFF" stroke-linecap="round" stroke-linejoin="round"/>
<path d="M1621.87 524.092H1670.71L1658.48 644.148H1634.06L1621.87 524.092Z" fill="white" stroke="#263238" stroke-linecap="round" stroke-linejoin="round"/>
<path d="M1645.64 514.578C1641.7 509.677 1636.75 505.504 1631.06 502.287C1624.17 499.605 1616.74 498.219 1609.23 498.215C1609.23 498.215 1616.52 521.982 1645.64 514.578Z" fill="#407BFF"/>
<path d="M1646.54 514.578C1650.48 509.677 1655.43 505.504 1661.12 502.287C1668.02 499.603 1675.46 498.218 1682.99 498.215C1682.99 498.215 1675.7 521.982 1646.54 514.578Z" fill="#407BFF"/>
<path d="M1645.64 485.147C1641.7 480.246 1636.75 476.073 1631.06 472.856C1624.17 470.174 1616.74 468.789 1609.23 468.784C1609.23 468.784 1616.52 492.366 1645.64 485.147Z" fill="#407BFF"/>
<path d="M1646.54 485.147C1650.48 480.246 1655.43 476.073 1661.12 472.856C1668.02 470.172 1675.46 468.787 1682.99 468.784C1682.99 468.784 1675.7 492.366 1646.54 485.147Z" fill="#407BFF"/>
<path d="M1645.64 455.679C1641.7 450.778 1636.75 446.605 1631.06 443.389C1624.17 440.683 1616.74 439.284 1609.23 439.279C1609.23 439.279 1616.52 463.046 1645.64 455.679Z" fill="#407BFF"/>
<path d="M1646.54 455.679C1650.48 450.778 1655.43 446.605 1661.12 443.389C1668.02 440.682 1675.46 439.283 1682.99 439.279C1682.99 439.279 1675.7 463.046 1646.54 455.679Z" fill="#407BFF"/>
<path d="M1645.64 426.211C1641.71 421.301 1636.76 417.126 1631.06 413.921C1624.17 411.215 1616.74 409.816 1609.23 409.811C1609.23 409.811 1616.52 433.578 1645.64 426.211Z" fill="#407BFF"/>
<path d="M1646.54 426.211C1650.46 421.301 1655.42 417.126 1661.12 413.921C1668.02 411.214 1675.46 409.815 1682.99 409.811C1682.99 409.811 1675.7 433.578 1646.54 426.211Z" fill="#407BFF"/>
<path d="M1646.54 415.55C1642.41 410.474 1639.77 404.538 1638.88 398.298C1639.34 391.558 1641.31 384.971 1644.69 378.937C1644.69 378.937 1667.01 395.485 1646.54 415.55Z" fill="#407BFF"/>
<path d="M1779.02 69.4495H1635.3V243.592H1779.02V69.4495Z" fill="#407BFF" stroke="#263238" stroke-linecap="round" stroke-linejoin="round"/>
<path d="M1758.14 94.7341H1656.14V218.344H1758.14V94.7341Z" fill="white" stroke="#263238" stroke-linecap="round" stroke-linejoin="round"/>
<path d="M1951.97 137.344H1835.02V279.057H1951.97V137.344Z" fill="#407BFF" stroke="#263238" stroke-linecap="round" stroke-linejoin="round"/>
<path d="M1934.97 157.89H1851.99V258.437H1934.97V157.89Z" fill="white" stroke="#263238" stroke-linecap="round" stroke-linejoin="round"/>
<path d="M1828.84 293.495H1728.86V414.624H1828.84V293.495Z" fill="#407BFF" stroke="#263238" stroke-linecap="round" stroke-linejoin="round"/>
<path d="M1814.35 311.079H1743.4V397.039H1814.35V311.079Z" fill="white" stroke="#263238" stroke-linecap="round" stroke-linejoin="round"/>
<path d="M900.813 365.609H770.807C769.395 365.619 768.044 366.131 767.048 367.032C766.053 367.934 765.495 369.152 765.495 370.422C765.495 371.689 766.055 372.903 767.051 373.799C768.047 374.695 769.398 375.198 770.807 375.198H905.96V370.422C905.972 369.174 905.439 367.972 904.477 367.073C903.515 366.173 902.2 365.648 900.813 365.609Z" fill="white" stroke="#263238" stroke-linecap="round" stroke-linejoin="round"/>
<path d="M845.837 245.702H680.335C676.991 245.702 674.281 248.138 674.281 251.144V350.542C674.281 353.548 676.991 355.984 680.335 355.984H845.837C849.18 355.984 851.891 353.548 851.891 350.542V251.144C851.891 248.138 849.18 245.702 845.837 245.702Z" fill="#263238" stroke="#263238" stroke-linecap="round" stroke-linejoin="round"/>
<path d="M816.6 275.133H702.531C699.188 275.133 696.478 277.569 696.478 280.575V350.579C696.478 353.585 699.188 356.021 702.531 356.021H816.6C819.943 356.021 822.653 353.585 822.653 350.579V280.575C822.653 277.569 819.943 275.133 816.6 275.133Z" fill="#474747" stroke="#263238" stroke-linecap="round" stroke-linejoin="round"/>
<path d="M765.207 325.554H752.771C749.428 325.554 746.717 327.99 746.717 330.996V375.79C746.717 378.795 749.428 381.232 752.771 381.232H765.207C768.55 381.232 771.261 378.795 771.261 375.79V330.996C771.261 327.99 768.55 325.554 765.207 325.554Z" fill="white" stroke="#263238" stroke-linecap="round" stroke-linejoin="round"/>
<path d="M1020.15 383.342L1066.56 227.155C1068.16 221.8 1071.85 217.141 1076.95 214.029C1082.06 210.916 1088.23 209.557 1094.36 210.2L1162.96 212.532C1166.31 212.89 1169.55 213.837 1172.49 215.321C1175.43 216.804 1178.02 218.794 1180.1 221.177C1182.19 223.559 1183.73 226.288 1184.64 229.207C1185.55 232.126 1185.81 235.177 1185.41 238.187L1165.39 384.156L1020.15 383.342Z" fill="#B5B5B5" stroke="#263238" stroke-linecap="round" stroke-linejoin="round"/>
<path d="M1042.64 272.615H998.78L926.55 302.49L930.051 329.848L989.514 320.297L990.915 386.452H1083.03L1099.3 345.73L1119.89 382.75C1120.05 383.04 1120.28 383.292 1120.57 383.485C1120.86 383.678 1121.19 383.808 1121.54 383.862C1121.9 383.916 1122.26 383.894 1122.6 383.797C1122.95 383.7 1123.26 383.532 1123.51 383.305L1194.22 319.038L1184.3 310.746L1131.96 335.549L1106.47 282.759L1042.64 272.615Z" fill="#407BFF" stroke="#263238" stroke-linecap="round" stroke-linejoin="round"/>
<path d="M1024.23 272.615C1024.23 272.615 1007.26 306.303 1007.26 327.923C1007.26 349.543 1022.13 376.271 1022.13 376.271L1047.58 380.714C1059.96 365.943 1068.21 348.714 1071.63 330.478C1074.21 313.193 1074.93 295.725 1073.77 278.316C1073.77 278.316 1056.06 271.949 1024.23 272.615Z" fill="#407BFF" stroke="#263238" stroke-linecap="round" stroke-linejoin="round"/>
<path d="M1034.15 277.65C1029.45 294.783 1026.37 312.246 1024.97 329.848C1023.53 354.652 1022.13 386.452 1022.13 386.452H1044.78C1044.78 386.452 1056.06 312.671 1060.34 295.494C1064.63 278.316 1056.06 266.877 1034.15 277.65Z" fill="white" stroke="#263238" stroke-linecap="round" stroke-linejoin="round"/>
<path d="M1021.26 210.718C1021.26 210.718 1005.9 208.126 1004.17 196.761C1002.44 185.396 1021.14 172.217 1045.35 167.33C1069.57 162.444 1096.29 182.916 1099.84 201.722C1103.38 220.528 1111.24 243.962 1106.3 253.55C1101.36 263.138 1078.3 266.618 1053.76 269.654C1029.21 272.689 1016.08 261.435 1015.62 253.772C1015.17 246.109 1021.26 210.718 1021.26 210.718Z" fill="#263238" stroke="#263238" stroke-linecap="round" stroke-linejoin="round"/>
<path d="M1042.64 269.432C1042.64 269.432 1035.55 269.432 1033.45 272.615C1031.35 275.799 1016.98 298.529 1016.98 298.529L1043.13 295.346L1072.16 304.897C1072.16 304.897 1072.86 280.093 1070.02 274.355C1067.18 268.617 1042.64 269.432 1042.64 269.432Z" fill="white" stroke="#263238" stroke-linecap="round" stroke-linejoin="round"/>
<path d="M1040.54 256.697C1040.54 256.697 1039.1 285.313 1039.1 291.681C1039.14 293.326 1039.8 294.911 1040.96 296.184C1042.12 297.458 1043.72 298.347 1045.5 298.713C1047.29 299.078 1049.16 298.898 1050.82 298.201C1052.47 297.504 1053.83 296.33 1054.66 294.864C1059.6 287.868 1063.84 256.697 1063.84 256.697H1040.54Z" fill="white" stroke="#263238" stroke-linecap="round" stroke-linejoin="round"/>
<path d="M980.373 207.09L1003.02 253.513L1024.97 245.887L1003.02 202.018L980.373 207.09Z" fill="#263238" stroke="#263238" stroke-linecap="round" stroke-linejoin="round"/>
<path d="M1042.39 190.801C1044.08 192.282 1031.31 204.535 1021.43 207.09C1016.65 208.311 1021.43 228.08 1019.99 236.336C1018.46 245.331 1039.3 264.36 1047.7 263.323C1065.99 261.065 1072.99 255.919 1075.42 248.515C1076.28 245.184 1076.91 241.809 1077.31 238.409C1077.31 238.409 1086.49 244.11 1087.93 235.854C1089.38 227.599 1084.39 225.045 1084.39 225.045C1084.39 225.045 1044.04 218.418 1042.39 190.801Z" fill="white" stroke="#263238" stroke-linecap="round" stroke-linejoin="round"/>
<path d="M1184.13 310.746L1193.31 289.126L1209.17 282.944L1209.62 282.796V288.497L1200.4 293.606H1216.66L1225.89 284.684L1229.43 286.609L1220.9 306.933L1194.06 319.038L1184.13 310.746Z" fill="white" stroke="#263238" stroke-linecap="round" stroke-linejoin="round"/>
<path d="M989.597 254.809L978.972 228.08L994.539 212.828L998.657 215.345C998.657 215.345 995.115 228.71 995.115 230.635C998.248 237.576 1001.79 244.36 1005.74 250.959L981.031 278.316L970.448 268.136L989.597 254.809Z" fill="white" stroke="#263238" stroke-linecap="round" stroke-linejoin="round"/>
<path d="M970.489 268.136L917.738 301.454C915.286 302.993 913.321 305.078 912.036 307.505C910.751 309.933 910.19 312.618 910.408 315.299L910.696 319.001C911.003 322.655 912.746 326.091 915.613 328.695C918.48 331.3 922.284 332.902 926.344 333.217C929.431 333.455 932.532 332.941 935.322 331.729C938.112 330.517 940.487 328.653 942.198 326.331L981.072 278.613L970.489 268.136Z" fill="#407BFF" stroke="#263238" stroke-linecap="round" stroke-linejoin="round"/>
<path d="M655.05 374.679H1368.7V633.819H655.05C653.445 633.819 651.905 633.246 650.77 632.226C649.634 631.205 648.997 629.821 648.997 628.378V380.344C648.963 379.61 649.095 378.879 649.385 378.193C649.674 377.507 650.115 376.88 650.68 376.351C651.245 375.822 651.924 375.401 652.675 375.114C653.426 374.827 654.234 374.679 655.05 374.679Z" fill="white" stroke="#263238" stroke-linecap="round" stroke-linejoin="round"/>
<path d="M1138.71 348.432H1211.35L1201.01 375.161H1128.37L1138.71 348.432Z" fill="#263238" stroke="#263238" stroke-linecap="round" stroke-linejoin="round"/>
<path d="M1264.97 348.432H1140.6L1150.94 375.161H1275.3L1264.97 348.432Z" fill="white" stroke="#263238" stroke-linecap="round" stroke-linejoin="round"/>
<path d="M1177.34 357.65L1178.2 359.649C1179.31 362.13 1178.57 363.351 1175.89 363.351H1174.62L1177.21 369.126H1174.49L1167.7 353.763H1171.82C1173.08 353.8 1174.29 354.196 1175.28 354.895C1176.28 355.594 1177 356.559 1177.34 357.65ZM1171.37 356.058L1173.67 361.278H1174.95C1175.77 361.278 1176.1 360.908 1175.61 359.797L1174.58 357.502C1174.08 356.391 1173.47 356.058 1172.6 356.058H1171.37Z" fill="#263238"/>
<path d="M1189.36 369.238C1188.88 368.664 1188.51 368.027 1188.25 367.35L1187.18 364.943C1186.56 363.499 1185.78 362.981 1184.54 362.981H1183.64L1186.4 369.238H1183.72L1176.88 353.874H1181C1182.26 353.829 1183.5 354.171 1184.51 354.845C1185.52 355.518 1186.24 356.482 1186.56 357.576L1187.1 358.798C1187.78 360.353 1187.66 361.389 1186.73 361.908C1187.49 362.204 1188.18 362.65 1188.74 363.213C1189.29 363.777 1189.7 364.443 1189.94 365.165L1191.01 367.535C1191.25 368.218 1191.63 368.857 1192.12 369.423L1189.36 369.238ZM1180.55 356.058L1182.65 360.76H1183.72C1184.71 360.76 1185.16 360.39 1184.58 359.168L1183.93 357.65C1183.43 356.54 1182.81 356.058 1181.87 356.058H1180.55Z" fill="#263238"/>
<path d="M1192.28 360.353H1195.95L1196.94 362.537H1193.27L1195.25 367.016H1199.9L1200.89 369.237H1193.56L1186.73 353.874H1194.22L1195.17 356.058H1190.56L1192.28 360.353Z" fill="#263238"/>
<path d="M1199.24 353.689C1200.5 353.704 1201.72 354.068 1202.74 354.731C1203.76 355.394 1204.52 356.323 1204.93 357.391V357.872H1202.46L1202.17 357.243C1201.72 356.132 1201.02 355.725 1200.15 355.725C1199.29 355.725 1199 356.132 1199.49 357.243C1200.89 360.427 1206.41 360.945 1208.39 365.387C1209.46 367.868 1208.72 369.275 1206.08 369.275C1204.79 369.26 1203.54 368.875 1202.51 368.175C1201.48 367.476 1200.72 366.499 1200.36 365.387L1199.94 364.462H1202.46L1202.91 365.535C1203.4 366.646 1204.14 367.053 1204.97 367.053C1205.79 367.053 1206.2 366.646 1205.71 365.535C1204.31 362.389 1198.79 361.833 1196.86 357.391C1195.91 355.096 1196.65 353.689 1199.24 353.689Z" fill="#263238"/>
<path d="M1204.84 353.874H1207.52L1214.36 369.237H1211.68L1204.84 353.874Z" fill="#263238"/>
<path d="M1209.5 353.874H1213.62C1214.88 353.861 1216.11 354.214 1217.14 354.881C1218.16 355.548 1218.92 356.493 1219.3 357.576L1222.76 365.35C1223.87 367.831 1223.13 369.052 1220.45 369.052H1216.33L1209.5 353.874ZM1213.16 356.058L1218.02 367.164H1219.55C1220.41 367.164 1220.74 366.794 1220.25 365.684L1216.7 357.687C1216.21 356.614 1215.51 356.206 1214.65 356.206L1213.16 356.058Z" fill="#263238"/>
<path d="M1225.02 360.353H1228.69L1229.68 362.537H1226.01L1227.99 367.016H1232.64L1233.63 369.237H1226.3L1219.46 353.874H1226.79L1227.74 356.058H1223.05L1225.02 360.353Z" fill="#263238"/>
<path d="M1232.72 358.094L1237.66 369.2H1235.4L1228.61 353.837H1231.94L1238.82 363.018L1234.7 353.837H1237.09L1243.64 369.237H1240.88L1232.72 358.094Z" fill="#263238"/>
<path d="M1238.08 353.874H1246.31L1247.3 356.058H1244.5L1250.35 369.237H1247.75L1241.87 356.058H1239.07L1238.08 353.874Z" fill="#263238"/>
<path d="M642.985 374.679H1380.77V387.673H642.985C641.379 387.673 639.839 387.1 638.704 386.08C637.569 385.059 636.931 383.675 636.931 382.232V380.121C636.931 378.678 637.569 377.294 638.704 376.273C639.839 375.253 641.379 374.679 642.985 374.679Z" fill="#263238"/>
<path d="M1310.31 1020.38L1420.05 1044.45C1421.22 1044.77 1422.29 1045.33 1423.18 1046.07C1424.08 1046.81 1424.78 1047.72 1425.24 1048.74C1425.7 1049.76 1425.9 1050.85 1425.83 1051.95C1425.75 1053.04 1425.41 1054.11 1424.83 1055.07L1333.86 1207.19L1372.32 1236.17L1331.43 1228.36L1299.19 1216.55L1303.96 1198.3L1362.07 1072.21C1362.36 1071.53 1362.45 1070.79 1362.35 1070.07C1362.26 1069.34 1361.96 1068.65 1361.5 1068.05C1361.04 1067.45 1360.42 1066.96 1359.7 1066.62C1358.99 1066.28 1358.19 1066.1 1357.38 1066.1H1235.4C1235.4 1066.1 1210.69 1045.41 1234.58 1017.31L1310.31 1020.38Z" fill="#263238" stroke="#263238" stroke-linecap="round" stroke-linejoin="round"/>
<path d="M1273.9 1207.93V1108.38H1258.3V1095.05H1298.57V1108.38H1282.96V1206.59L1358.61 1224.29V1229.47H1350.37L1282.96 1218.07V1229.47H1273.9V1219.03L1212.22 1229.47H1204.02V1224.29L1273.9 1207.93Z" fill="#263238"/>
<path d="M1317.47 1095.79H1197.43L1185.98 1078.61C1181.69 1072.25 1179.11 1065.06 1178.45 1057.64C1177.78 1050.22 1179.05 1042.76 1182.15 1035.86L1189.4 1019.64" stroke="#263238" stroke-width="2" stroke-linecap="round" stroke-linejoin="round"/>
<path d="M1321.59 920.576L1346.3 949.045L1410.42 954.227C1410.42 954.227 1437.1 943.121 1442.86 943.121C1448.63 943.121 1464.48 965.815 1464.48 965.815H1407.41L1341.11 975.551L1310.84 957.374L1321.59 920.576Z" fill="#5C5C5C" stroke="#263238" stroke-linecap="round" stroke-linejoin="round"/>
<path d="M1319.94 907.286L1335.26 992.432C1336.5 999.281 1337.07 1019.12 1328.26 1022.9C1326.57 1023.49 1324.76 1023.75 1322.95 1023.64C1310.8 1023.64 1299.06 1020.49 1287.12 1020.49H1242.11C1239.33 1020.49 1236.61 1019.77 1234.28 1018.41C1231.95 1017.05 1230.11 1015.11 1228.98 1012.83L1228.15 1011.16C1226.88 1008.59 1226.58 1005.72 1227.29 1002.98C1232.6 982.585 1255.66 904.065 1260.77 895.625C1266.49 886.037 1286.26 879.373 1286.26 879.373L1319.94 907.286Z" fill="#407BFF" stroke="#263238" stroke-linecap="round" stroke-linejoin="round"/>
<path d="M1337.11 876.967L1323.98 882.223L1314.47 900.733L1288.15 877.744L1295.44 862.64C1295.44 862.64 1285.93 850.127 1288.15 838.947C1290.38 827.767 1313.72 815.958 1326.16 826.471C1338.6 836.985 1337.11 876.967 1337.11 876.967Z" fill="white" stroke="#263238" stroke-linecap="round" stroke-linejoin="round"/>
<path d="M1342.01 825.546C1342.01 825.546 1350.7 823.806 1349.76 816.883C1348.81 809.961 1342.01 817.735 1342.01 809.96C1342.01 802.186 1349.76 799.558 1344.94 795.152C1340.12 790.747 1324.68 788.23 1320.85 794.301C1317.02 800.372 1317.92 803.815 1315.04 803.815C1312.16 803.815 1304.46 797.744 1298.57 805.555C1292.68 813.366 1294.74 815.958 1294.74 815.958C1294.74 815.958 1272.59 823.732 1272.59 836.726C1272.59 849.72 1295.36 862.344 1295.36 862.344C1295.36 862.344 1310.14 863.565 1316.9 857.531C1323.65 851.497 1325.58 841.057 1327.48 836.726C1329.37 832.395 1342.01 825.546 1342.01 825.546Z" fill="#263238" stroke="#263238" stroke-linecap="round" stroke-linejoin="round"/>
<path d="M1338.6 819.808L1345.14 837.54V842.131L1354.53 850.571V850.794L1347.33 858.568L1348.03 875.671L1331.56 876.745C1327.66 876.994 1323.77 876.111 1320.47 874.225C1317.17 872.338 1314.63 869.549 1313.23 866.268L1309.32 857.235C1307.3 856.495 1305.59 855.211 1304.42 853.561C1303.24 851.91 1302.67 849.973 1302.77 848.017C1302.77 840.613 1302.03 838.17 1306.39 838.17C1309.61 838.269 1312.8 838.703 1315.91 839.465L1320.31 837.503L1319.57 830.914L1326.16 826.323L1326.9 819.771L1338.6 819.808Z" fill="white" stroke="#263238" stroke-linecap="round" stroke-linejoin="round"/>
<path d="M1290.33 868.119L1329 902.103L1321.59 920.576L1280.49 879.188L1290.33 868.119Z" fill="#407BFF" stroke="#263238" stroke-linecap="round" stroke-linejoin="round"/>
<path d="M1225.39 1092.13H1351.2C1356.66 1092.13 1361.08 1088.15 1361.08 1083.24V1072.91C1361.08 1068.01 1356.66 1064.03 1351.2 1064.03H1225.39C1219.94 1064.03 1215.51 1068.01 1215.51 1072.91V1083.24C1215.51 1088.15 1219.94 1092.13 1225.39 1092.13Z" fill="#B5B5B5" stroke="#263238" stroke-linecap="round" stroke-linejoin="round"/>
<path d="M1200.1 1052.56L1213.13 1051.04C1216.74 1050.62 1219.28 1047.65 1218.82 1044.41L1207.08 963.053C1206.61 959.809 1203.31 957.52 1199.7 957.941L1186.67 959.46C1183.06 959.881 1180.51 962.852 1180.98 966.096L1192.72 1047.45C1193.19 1050.69 1196.49 1052.98 1200.1 1052.56Z" fill="#B5B5B5" stroke="#263238" stroke-linecap="round" stroke-linejoin="round"/>
<path d="M1290.33 897.661L1328.06 957.929L1398.88 955.338C1398.88 955.338 1429.32 949.415 1434.26 948.674C1439.2 947.934 1453.16 962.742 1453.16 962.742H1403.74L1314.01 986.768L1258.21 925.759" fill="#407BFF"/>
<path d="M1290.33 897.661L1328.06 957.929L1398.88 955.338C1398.88 955.338 1429.32 949.415 1434.26 948.674C1439.2 947.934 1453.16 962.742 1453.16 962.742H1403.74L1314.01 986.768L1258.21 925.759" stroke="#263238" stroke-linecap="round" stroke-linejoin="round"/>
<path d="M1399.01 963.742L1397.2 955.301H1398.88C1398.88 955.301 1429.32 949.378 1434.26 948.637C1439.2 947.897 1453.16 962.705 1453.16 962.705H1403.74L1399.01 963.742Z" fill="white" stroke="#263238" stroke-linecap="round" stroke-linejoin="round"/>
<path d="M1789.48 1062.47C1789.48 1062.47 1865.7 1189.27 1868.09 1194.34C1870.38 1200.14 1871.55 1206.25 1871.55 1212.4C1871.55 1212.4 1870.68 1213.96 1867.18 1213.96C1863.68 1213.96 1827.9 1228.1 1818.3 1228.1H1800.84L1813.94 1217.88L1828.76 1203.08C1828.76 1203.08 1837 1204.78 1837 1190.64C1837 1176.5 1744.1 1064.14 1740.6 1055.51C1737.1 1046.89 1756.33 1041.41 1762.42 1042.19C1768.52 1042.96 1786.02 1045.33 1786.02 1045.33L1789.48 1062.47Z" fill="#5C5C5C" stroke="#263238" stroke-linecap="round" stroke-linejoin="round"/>
<path d="M1856.72 1013.39L1726.02 1047C1724.82 1047.31 1723.72 1047.86 1722.8 1048.61C1721.88 1049.36 1721.15 1050.29 1720.68 1051.33C1720.22 1052.36 1720.02 1053.48 1720.1 1054.6C1720.18 1055.72 1720.54 1056.8 1721.16 1057.77L1824.27 1199.45L1782.52 1233.1L1811.34 1236.32L1834.03 1228.92L1846.84 1219.36L1842.06 1201.11L1783.92 1074.88C1783.63 1074.19 1783.53 1073.46 1783.63 1072.74C1783.73 1072.02 1784.02 1071.32 1784.48 1070.73C1784.95 1070.13 1785.56 1069.64 1786.28 1069.31C1787 1068.97 1787.8 1068.8 1788.61 1068.8H1926.57C1926.57 1068.8 1957.41 1042.26 1933.57 1014.16L1856.72 1013.39Z" fill="white" stroke="#263238" stroke-linecap="round" stroke-linejoin="round"/>
<path d="M1808.96 876.967L1822.09 882.224L1831.6 900.734L1857.92 877.744L1850.63 862.566C1850.63 862.566 1860.1 850.053 1857.92 838.873C1855.74 827.693 1832.35 815.884 1819.91 826.397C1807.47 836.911 1808.96 876.967 1808.96 876.967Z" fill="white" stroke="#263238" stroke-linecap="round" stroke-linejoin="round"/>
<path d="M1807.47 819.808L1800.92 837.54V842.131L1791.54 850.571V850.794L1798.74 858.568L1798.04 875.671L1814.51 876.745C1818.41 876.999 1822.3 876.123 1825.61 874.244C1828.92 872.365 1831.46 869.582 1832.88 866.305L1836.75 857.272C1838.78 856.538 1840.5 855.257 1841.68 853.606C1842.86 851.955 1843.44 850.015 1843.34 848.054C1843.34 840.65 1844.08 838.207 1839.68 838.207C1836.47 838.308 1833.29 838.743 1830.2 839.503L1825.8 837.54L1826.54 830.951L1819.95 826.36L1819.21 819.808H1807.47Z" fill="white" stroke="#263238" stroke-linecap="round" stroke-linejoin="round"/>
<path d="M1831.4 918.096L1799.69 954.376L1708.15 952.413C1708.15 952.413 1680.76 942.048 1676.44 944.01C1672.11 945.972 1662.72 960.188 1662.72 960.188L1684.39 956.967C1689.2 958.887 1694.28 960.195 1699.5 960.854C1703.2 960.701 1706.85 960.039 1710.33 958.892L1821.31 978.994L1853.76 949.822L1831.4 918.096Z" fill="#5C5C5C" stroke="#263238" stroke-linecap="round" stroke-linejoin="round"/>
<path d="M1827.03 909.581C1827.03 909.581 1821.8 955.079 1827.03 961.409C1832.26 967.74 1854.09 974.737 1854.99 977.106C1855.9 979.475 1854.99 1008.5 1856.72 1010.87C1861.48 1014.75 1867.09 1017.69 1873.2 1019.49H1928.17C1928.17 1019.49 1936.94 1013.2 1936.94 1007.72C1936.94 1002.24 1917.96 981.807 1917.96 981.807C1917.96 981.807 1908.98 919.836 1900.25 904.065C1891.52 888.295 1855.53 878.633 1852.56 877.633C1849.6 876.634 1827.03 909.581 1827.03 909.581Z" fill="#407BFF" stroke="#263238" stroke-linecap="round" stroke-linejoin="round"/>
<path d="M1855.69 868.119L1817.07 902.103L1824.48 920.576L1865.58 879.188L1855.69 868.119Z" fill="#407BFF" stroke="#263238" stroke-linecap="round" stroke-linejoin="round"/>
<path d="M1855.69 897.661L1818.01 957.929L1747.14 955.338C1747.14 955.338 1716.75 949.415 1711.81 948.674C1706.87 947.934 1692.87 962.742 1692.87 962.742H1742.28L1832.02 986.768L1887.81 925.759" fill="#407BFF"/>
<path d="M1855.69 897.661L1818.01 957.929L1747.14 955.338C1747.14 955.338 1716.75 949.415 1711.81 948.674C1706.87 947.934 1692.87 962.742 1692.87 962.742H1742.28L1832.02 986.768L1887.81 925.759" stroke="#263238" stroke-linecap="round" stroke-linejoin="round"/>
<path d="M1747.06 963.742L1748.87 955.301H1747.14C1747.14 955.301 1716.75 949.378 1711.81 948.637C1706.87 947.897 1692.87 962.705 1692.87 962.705H1742.28L1747.06 963.742Z" fill="white" stroke="#263238" stroke-linecap="round" stroke-linejoin="round"/>
<path d="M1795.45 819.327C1795.45 819.327 1838.23 864.38 1854.83 864.824C1884.48 865.602 1878.38 824.805 1868.79 814.588C1862.86 808.109 1800.84 785.564 1795.45 819.327Z" fill="#263238" stroke="#263238" stroke-linecap="round" stroke-linejoin="round"/>
<path d="M1840.13 836.652C1840.13 836.652 1844.49 855.495 1837.53 868.822C1830.57 882.149 1819.17 880.595 1821.8 882.964C1824.44 885.333 1840.99 898.66 1856.72 891.59C1872.45 884.519 1877.81 856.198 1877.81 844.426" fill="#263238"/>
<path d="M1840.13 836.652C1840.13 836.652 1844.49 855.495 1837.53 868.822C1830.57 882.149 1819.17 880.595 1821.8 882.964C1824.44 885.333 1840.99 898.66 1856.72 891.59C1872.45 884.519 1877.81 856.198 1877.81 844.426" stroke="#263238" stroke-linecap="round" stroke-linejoin="round"/>
<path d="M1933.57 1011.61L1856.72 1010.83L1737.3 1041.56C1746.86 1046.22 1768.76 1059.36 1784.21 1068.8C1784.99 1067.32 1806.77 1070.58 1808.91 1070.58L1926.57 1066.18C1926.57 1066.18 1957.41 1039.71 1933.57 1011.61Z" fill="#263238"/>
<path d="M1918.45 1207.93V1108.38H1934.06V1095.05H1893.79V1108.38H1909.39V1206.59L1833.75 1224.29V1229.47H1841.94L1909.39 1218.07V1229.47H1918.45V1219.03L1980.1 1229.47H1988.33V1224.29L1918.45 1207.93Z" fill="#263238"/>
<path d="M1874.84 1095.79H1994.92L2006.54 1078.61C2010.84 1072.25 2013.44 1065.07 2014.11 1057.65C2014.78 1050.22 2013.51 1042.76 2010.41 1035.86L2003.12 1019.64" stroke="#263238" stroke-width="2" stroke-linecap="round" stroke-linejoin="round"/>
<path d="M1966.96 1063.99H1841.16C1835.7 1063.99 1831.27 1067.97 1831.27 1072.88V1083.21C1831.27 1088.11 1835.7 1092.09 1841.16 1092.09H1966.96C1972.42 1092.09 1976.85 1088.11 1976.85 1083.21V1072.88C1976.85 1067.97 1972.42 1063.99 1966.96 1063.99Z" fill="#B5B5B5" stroke="#263238" stroke-linecap="round" stroke-linejoin="round"/>
<path d="M2000.79 960.326L1987.78 958.791C1984.18 958.365 1980.88 960.646 1980.4 963.884L1968.54 1045.1C1968.07 1048.34 1970.6 1051.31 1974.21 1051.73L1987.21 1053.27C1990.81 1053.69 1994.12 1051.41 1994.59 1048.18L2006.45 966.96C2006.93 963.721 2004.39 960.751 2000.79 960.326Z" fill="#B5B5B5" stroke="#263238" stroke-width="0.998499" stroke-linecap="round" stroke-linejoin="round"/>
<path d="M1542.44 967.444L1529.22 903.621H1522.47L1535.68 967.444H1509.58V971.812H1536.59H1543.34L1542.44 967.444Z" fill="white" stroke="#263238" stroke-width="0.75" stroke-linecap="round" stroke-linejoin="round"/>
<path d="M1503.61 942.899L1510.98 944.158L1523.5 856.458L1516.12 855.162L1503.61 942.899Z" fill="white" stroke="#263238" stroke-width="0.75" stroke-linecap="round" stroke-linejoin="round"/>
<path d="M1522.47 861.048L1529.22 871.155L1518.72 940.049L1510.98 944.158L1522.47 861.048Z" fill="white" stroke="#263238" stroke-width="0.75" stroke-linecap="round" stroke-linejoin="round"/>
<path d="M1492.69 968.184H1429.93V971.442H1492.69V968.184Z" fill="white" stroke="#263238" stroke-width="0.75" stroke-linecap="round" stroke-linejoin="round"/>
<path d="M1622.86 967.444L1636.12 903.621H1642.88L1629.66 967.444H1655.77V971.812H1628.75H1622L1622.86 967.444Z" fill="white" stroke="#263238" stroke-width="0.75" stroke-linecap="round" stroke-linejoin="round"/>
<path d="M1661.74 942.899L1654.37 944.158L1641.85 856.458L1649.22 855.162L1661.74 942.899Z" fill="white" stroke="#263238" stroke-width="0.75" stroke-linecap="round" stroke-linejoin="round"/>
<path d="M1642.88 861.048L1636.12 871.155L1646.62 940.049L1654.37 944.158L1642.88 861.048Z" fill="white" stroke="#263238" stroke-width="0.75" stroke-linecap="round" stroke-linejoin="round"/>
<path d="M1672.65 971.442H1735.41V968.184H1672.65V971.442Z" fill="white" stroke="#263238" stroke-width="0.75" stroke-linecap="round" stroke-linejoin="round"/>
<path d="M1798.99 985.361H1402.43V1236.28H1798.99V985.361Z" fill="white" stroke="#263238" stroke-linecap="round" stroke-linejoin="round"/>
<path d="M1574.19 1064.84H1382.12V1236.32H1574.19V1064.84Z" fill="white" stroke="#263238" stroke-linecap="round" stroke-linejoin="round"/>
<path d="M1824.4 1064.84H1632.33V1236.32H1824.4V1064.84Z" fill="white" stroke="#263238" stroke-linecap="round" stroke-linejoin="round"/>
<path d="M1806.61 970.109H1394.81V986.546H1806.61V970.109Z" fill="white" stroke="#263238" stroke-linecap="round" stroke-linejoin="round"/>
<path d="M726.662 958.152H645.62C636.523 958.152 629.148 964.781 629.148 972.96V1036.71C629.148 1044.89 636.523 1051.52 645.62 1051.52H726.662C735.759 1051.52 743.134 1044.89 743.134 1036.71V972.96C743.134 964.781 735.759 958.152 726.662 958.152Z" fill="#B5B5B5" stroke="#263238" stroke-linecap="round" stroke-linejoin="round"/>
<path d="M697.177 824.028C697.177 824.028 713.649 813.255 726.662 825.694C739.675 838.133 730.327 845.537 729.421 856.309C728.515 867.082 751.535 872.857 746.923 887.739C742.311 902.622 724.809 904.324 725.756 910.914C726.704 917.504 734.939 918.318 724.809 925.722C714.679 933.126 690.753 932.349 678.77 918.318C666.787 904.287 683.382 892.663 687.006 879.41C690.63 866.157 678.77 851.275 677.782 840.502C676.793 829.729 697.177 824.028 697.177 824.028Z" fill="#263238" stroke="#263238" stroke-linecap="round" stroke-linejoin="round"/>
<path d="M734.94 1002.32L724.315 914.912C724.315 914.912 674.199 898.512 659.457 898.512C655.75 898.512 610.329 914.912 610.329 914.912L590.068 968.036L590.81 968.924C592.46 970.855 594.528 972.466 596.889 973.66C599.249 974.855 601.854 975.607 604.547 975.874C607.239 976.14 609.964 975.914 612.557 975.21C615.15 974.505 617.558 973.337 619.636 971.775L621.695 970.257L633.843 1002.98L702.778 1001.8L710.726 1002.32H734.94Z" fill="white" stroke="#263238" stroke-linecap="round" stroke-linejoin="round"/>
<path d="M620.459 968.406L622.642 933.274" stroke="#263238" stroke-linecap="round" stroke-linejoin="round"/>
<path d="M706.566 995.727L703.643 936.606" stroke="#263238" stroke-linecap="round" stroke-linejoin="round"/>
<path d="M664.069 884.445C664.069 884.445 649.326 887.739 645.62 893.552C641.914 899.364 634.584 929.979 634.584 929.979L666.828 917.541L692.607 936.606C692.607 936.606 699.031 910.1 694.419 899.327C689.806 888.554 673.252 881.076 664.069 884.445Z" fill="white" stroke="#263238" stroke-linecap="round" stroke-linejoin="round"/>
<path d="M660.363 877.818C660.363 877.818 656.698 930.794 663.122 927.499C669.546 924.204 687.089 879.373 687.089 879.373L660.363 877.818Z" fill="white" stroke="#263238" stroke-linecap="round" stroke-linejoin="round"/>
<path d="M643.067 846.462C643.067 846.462 634.213 839.058 632.731 849.979C631.248 860.9 645.085 863.269 645.085 863.269L643.067 846.462Z" fill="white" stroke="#263238" stroke-linecap="round" stroke-linejoin="round"/>
<path d="M698.99 846.462C698.99 846.462 707.843 839.058 709.326 849.979C710.808 860.9 696.972 863.269 696.972 863.269L698.99 846.462Z" fill="white" stroke="#263238" stroke-linecap="round" stroke-linejoin="round"/>
<path d="M701.625 845.018C701.625 863.528 688.2 886.925 671.646 886.925C655.092 886.925 641.667 863.602 641.667 845.018C641.667 826.434 655.092 811.293 671.646 811.293C688.2 811.293 701.625 826.397 701.625 845.018Z" fill="white" stroke="#263238" stroke-linecap="round" stroke-linejoin="round"/>
<path d="M693.759 822.362C691.838 824.611 690.689 827.316 690.455 830.144C690.221 832.973 690.912 835.801 692.442 838.281C693.245 840.195 694.463 841.946 696.025 843.433C697.587 844.92 699.463 846.113 701.543 846.943C701.543 846.314 701.543 845.648 701.543 845.018C701.667 836.918 698.943 828.989 693.759 822.362Z" fill="#263238" stroke="#263238" stroke-linecap="round" stroke-linejoin="round"/>
<path d="M693.677 822.214C691.233 818.952 687.96 816.26 684.129 814.361C680.298 812.462 676.019 811.41 671.646 811.293C655.174 811.293 641.667 826.397 641.667 845.018C659.16 841.225 675.628 834.314 690.095 824.694C691.289 823.917 692.483 823.066 693.677 822.214Z" fill="#263238" stroke="#263238" stroke-linecap="round" stroke-linejoin="round"/>
<path d="M602.711 950.192C602.711 950.192 587.515 946.786 581.174 951.34C576.87 955.067 573.804 959.796 572.32 965H596.369L606.499 961.594C606.499 961.594 607.776 967.258 615.394 962.705C623.012 958.151 602.711 950.192 602.711 950.192Z" fill="white" stroke="#263238" stroke-linecap="round" stroke-linejoin="round"/>
<path d="M672.14 1213.52V1113.93H687.747V1093.61H647.432V1113.93H663.08V1212.18L587.433 1229.88V1235.06H595.627L663.08 1223.66V1235.06H672.14V1224.62L733.786 1235.06H742.022V1229.88L672.14 1213.52Z" fill="#263238"/>
<path d="M727.157 1069.58H601.352C595.894 1069.58 591.469 1073.56 591.469 1078.47V1088.8C591.469 1093.7 595.894 1097.68 601.352 1097.68H727.157C732.615 1097.68 737.04 1093.7 737.04 1088.8V1078.47C737.04 1073.56 732.615 1069.58 727.157 1069.58Z" fill="#B5B5B5" stroke="#263238" stroke-linecap="round" stroke-linejoin="round"/>
<path d="M633.678 1002.98C633.678 1002.98 620.047 1033.52 608.97 1035.08C559.554 1042.15 545.264 1061.44 545.264 1061.44C543.826 1066.11 544.294 1071.08 546.582 1075.47C550.7 1081.28 597.275 1207.56 597.275 1207.56L571.29 1235.58H581.668C581.668 1235.58 602.505 1232.1 606.376 1226.25C610.246 1220.4 615.476 1215.74 616.794 1211.04C618.112 1206.33 620.706 1205.19 615.476 1200.52C612.608 1197.83 609.043 1195.82 605.099 1194.67L591.468 1078.47L641.502 1202.85C641.502 1202.85 661.227 1230.99 663.08 1235.06C664.934 1239.13 680.5 1233.25 671.316 1218.07C666.949 1209.98 660.75 1202.81 653.115 1197L631.001 1074.28L709.037 1069.62C712.633 1068.32 715.69 1066.04 717.785 1063.11C719.88 1060.18 720.91 1056.74 720.732 1053.26C720.732 1040.37 702.531 1001.8 702.531 1001.8L633.678 1002.98Z" fill="#263238" stroke="#263238" stroke-linecap="round" stroke-linejoin="round"/>
<path d="M706.567 995.838L648.297 1027.71L624.248 1031.15L611.605 1040.26C611.605 1040.26 639.443 1043.45 647.061 1041.15C651.256 1040.01 655.131 1038.08 658.427 1035.49L723.039 1014.98C723.039 1014.98 735.681 1004.72 734.445 999.021C733.21 993.32 706.567 992.321 706.567 995.838Z" fill="white" stroke="#263238" stroke-linecap="round" stroke-linejoin="round"/>
<path d="M546.582 1075.47C550.7 1081.28 594.145 1195.38 594.145 1195.38L585.909 1224.36L571.414 1235.47H581.791C581.791 1235.47 602.628 1231.99 606.499 1226.14C610.37 1220.29 615.6 1215.63 616.918 1210.92C618.236 1206.22 620.83 1205.07 615.6 1200.41C612.732 1197.72 609.167 1195.71 605.223 1194.56L591.592 1078.36L641.626 1202.74C641.626 1202.74 661.351 1230.88 663.204 1234.95C665.057 1239.02 680.623 1233.14 671.44 1217.96C667.073 1209.87 660.873 1202.7 653.239 1196.89L631.125 1074.17L634.296 1073.99C634.296 1073.99 631.043 1062.29 627.254 1061.33C568.243 1046.26 545.306 1061.33 545.306 1061.33C543.824 1066.02 544.277 1071.05 546.582 1075.47Z" fill="white" stroke="#263238" stroke-linecap="round" stroke-linejoin="round"/>
<path d="M591.469 1078.47C591.469 1078.47 581.544 1060.47 582.327 1056.96Z" fill="white"/>
<path d="M591.469 1078.47C591.469 1078.47 581.544 1060.47 582.327 1056.96" stroke="#263238" stroke-linecap="round" stroke-linejoin="round"/>
<path d="M958.712 1021.34L859.88 1047.52C858.685 1047.83 857.584 1048.38 856.66 1049.13C855.736 1049.88 855.013 1050.81 854.546 1051.85C854.078 1052.88 853.878 1054 853.96 1055.12C854.042 1056.23 854.405 1057.32 855.02 1058.29L934.992 1208.22L901.595 1236.47L937.504 1229.58L969.748 1217.77L964.971 1199.45L906.866 1073.36C906.578 1072.68 906.479 1071.94 906.578 1071.22C906.676 1070.5 906.97 1069.81 907.432 1069.21C907.895 1068.61 908.512 1068.12 909.232 1067.79C909.951 1067.45 910.75 1067.28 911.561 1067.29H1033.62C1033.62 1067.29 1058.33 1046.59 1034.44 1018.49L958.712 1021.34Z" fill="#263238" stroke="#263238" stroke-linecap="round" stroke-linejoin="round"/>
<path d="M959.494 904.398L894.759 938.605L877.999 954.19L888.5 961.076L953.853 952.784L959.494 904.398Z" fill="white" stroke="#263238" stroke-width="0.75" stroke-linecap="round" stroke-linejoin="round"/>
<path d="M905.301 901.252C905.301 901.252 871.287 943.751 871.204 947.749C871.122 951.747 879.44 958.003 884.794 960.632C890.147 963.26 900.36 956.226 900.36 956.226L916.296 907.212L905.301 901.252Z" fill="white" stroke="#263238" stroke-width="0.75" stroke-linecap="round" stroke-linejoin="round"/>
<path d="M949.034 908.212L944.34 1007.91C944.194 1011.29 945.54 1014.59 948.087 1017.09C949.427 1018.43 951.065 1019.5 952.896 1020.23C954.726 1020.97 956.708 1021.34 958.712 1021.34H1026.91C1029.68 1021.34 1032.4 1020.6 1034.72 1019.24C1037.05 1017.87 1038.88 1015.93 1040 1013.64L1040.87 1011.98C1042.12 1009.42 1042.42 1006.56 1041.73 1003.83C1036.42 983.399 1013.36 904.88 1008.25 896.476C1002.49 886.851 982.761 880.188 982.761 880.188L949.034 908.212Z" fill="white" stroke="#263238" stroke-linecap="round" stroke-linejoin="round"/>
<path d="M929.762 884.667L930.545 876.3L923.75 874.894L920.579 880.224L910.078 882.668L905.054 902.733L916.667 907.73L934.786 890.22L929.762 884.667Z" fill="white" stroke="#263238" stroke-width="0.75" stroke-linecap="round" stroke-linejoin="round"/>
<path d="M929.762 884.778L914.978 883.815L914.155 887.517L922.391 889.553C922.391 889.553 916.049 893.441 915.431 895.625" fill="white"/>
<path d="M929.762 884.778L914.978 883.815L914.155 887.517L922.391 889.553C922.391 889.553 916.049 893.441 915.431 895.625" stroke="#263238" stroke-width="0.75" stroke-linecap="round" stroke-linejoin="round"/>
<path d="M931.904 877.892L945.04 883.149L954.553 901.659L980.867 878.67L973.578 863.565C973.578 863.565 983.049 851.09 980.867 839.91C978.684 828.73 955.294 816.883 942.857 827.397C930.421 837.911 931.904 877.892 931.904 877.892Z" fill="white" stroke="#263238" stroke-linecap="round" stroke-linejoin="round"/>
<path d="M928.98 825.324C928.98 825.324 923.132 818.771 923.132 814.218C923.132 809.664 934.827 804.37 940.675 804.37C946.523 804.37 972.095 805.703 980.867 812.922C985.384 816.983 988.691 822.001 990.483 827.513C992.275 833.025 992.494 838.854 991.12 844.463C988.197 855.569 979.425 865.49 970.53 866.157C961.636 866.823 955.912 857.605 954.429 854.31C949.705 846.086 944.324 838.18 938.328 830.655C935.823 828.132 932.586 826.286 928.98 825.324Z" fill="#263238" stroke="#263238" stroke-linecap="round" stroke-linejoin="round"/>
<path d="M930.421 820.733L923.832 838.466V843.093L914.196 851.46L921.485 859.345L920.744 876.448L937.216 877.522C941.117 877.777 945.006 876.9 948.311 875.021C951.617 873.142 954.165 870.36 955.582 867.082L959.453 858.049C961.482 857.32 963.206 856.04 964.387 854.388C965.568 852.735 966.147 850.793 966.042 848.831C966.042 841.427 966.783 838.984 962.377 838.984C959.175 839.085 955.996 839.52 952.905 840.28L948.499 838.318L949.24 831.765L942.652 827.138L941.91 820.585L930.421 820.733Z" fill="white" stroke="#263238" stroke-linecap="round" stroke-linejoin="round"/>
<path d="M978.643 869.044L940.016 903.029L947.387 921.539L988.526 880.113L978.643 869.044Z" fill="white" stroke="#263238" stroke-linecap="round" stroke-linejoin="round"/>
<path d="M978.643 898.623L947.428 954.783L870.092 956.263C870.092 956.263 839.66 950.34 834.76 949.6C829.859 948.859 815.817 963.667 815.817 963.667H865.233L961.429 983.621L1010.85 926.684" fill="white"/>
<path d="M978.643 898.623L947.428 954.783L870.092 956.263C870.092 956.263 839.66 950.34 834.76 949.6C829.859 948.859 815.817 963.667 815.817 963.667H865.233L961.429 983.621L1010.85 926.684" stroke="#263238" stroke-linecap="round" stroke-linejoin="round"/>
<path d="M870.01 964.667L871.78 956.226H870.092C870.092 956.226 839.66 950.303 834.76 949.563C829.859 948.822 815.817 963.63 815.817 963.63H865.233L870.01 964.667Z" fill="white" stroke="#263238" stroke-linecap="round" stroke-linejoin="round"/>
<path d="M995.115 1208.89V1109.3H1010.72V1096.01H970.448V1109.3H986.055V1207.52L910.408 1225.25V1230.43H918.644L986.055 1218.99V1230.43H995.115V1219.99L1056.8 1230.43H1065V1225.25L995.115 1208.89Z" fill="#263238"/>
<path d="M951.505 1096.72H1071.59L1083.2 1079.54C1087.51 1073.18 1090.1 1066 1090.77 1058.57C1091.44 1051.15 1090.18 1043.69 1087.07 1036.78L1079.82 1020.6" stroke="#263238" stroke-width="2" stroke-linecap="round" stroke-linejoin="round"/>
<path d="M1043.62 1064.95H917.82C912.361 1064.95 907.937 1068.93 907.937 1073.84V1084.17C907.937 1089.07 912.361 1093.05 917.82 1093.05H1043.62C1049.08 1093.05 1053.51 1089.07 1053.51 1084.17V1073.84C1053.51 1068.93 1049.08 1064.95 1043.62 1064.95Z" fill="#B5B5B5" stroke="#263238" stroke-linecap="round" stroke-linejoin="round"/>
<path d="M1082.39 960.36L1069.36 958.841C1065.75 958.42 1062.45 960.709 1061.98 963.953L1050.24 1045.31C1049.77 1048.55 1052.32 1051.52 1055.93 1051.94L1068.95 1053.46C1072.56 1053.88 1075.87 1051.59 1076.34 1048.35L1088.07 966.996C1088.54 963.751 1086 960.78 1082.39 960.36Z" fill="#B5B5B5" stroke="#263238" stroke-linecap="round" stroke-linejoin="round"/>
<path d="M802.434 963.779H766.525L747.088 913.32H782.956L802.434 963.779Z" fill="white" stroke="#263238" stroke-width="0.75" stroke-linecap="round" stroke-linejoin="round"/>
<path d="M857.656 958.818H766.524V963.779H857.656V958.818Z" fill="white" stroke="#263238" stroke-width="0.75" stroke-linecap="round" stroke-linejoin="round"/>
<path d="M857.656 958.818H817.094V963.779H857.656V958.818Z" fill="white" stroke="#263238" stroke-width="0.75" stroke-linecap="round" stroke-linejoin="round"/>
<path d="M596.534 912.95H501.367V958.633H596.534V912.95Z" fill="white" stroke="#263238" stroke-width="0.75" stroke-linecap="round" stroke-linejoin="round"/>
<path d="M651.591 959.262H501.367V963.779H651.591V959.262Z" fill="white" stroke="#263238" stroke-width="0.75" stroke-linecap="round" stroke-linejoin="round"/>
<path d="M651.591 959.262H595.792V963.779H651.591V959.262Z" fill="white" stroke="#263238" stroke-width="0.75" stroke-linecap="round" stroke-linejoin="round"/>
<path d="M891.053 1236.28H900.277L904.89 991.099H886.441L891.053 1236.28Z" fill="white" stroke="#263238" stroke-linecap="round" stroke-linejoin="round"/>
<path d="M464.799 1236.28H474.023L478.594 991.099H460.187L464.799 1236.28Z" fill="white" stroke="#263238" stroke-linecap="round" stroke-linejoin="round"/>
<path d="M916.873 969.591H448.245V996.912H916.873V969.591Z" fill="white" stroke="#263238" stroke-linecap="round" stroke-linejoin="round"/>
<path d="M924.903 962.89H439.02V972.923H924.903V962.89Z" fill="#263238" stroke="#263238" stroke-linecap="round" stroke-linejoin="round"/>
<path d="M351.389 779.197L301.396 797.929L326.393 922.538H427.49L435.808 803.556L390.592 779.604L351.389 779.197Z" fill="white" stroke="#263238" stroke-linecap="round" stroke-linejoin="round"/>
<path d="M362.466 805.148L371.567 820.363L359.872 882.372L372.885 905.805L396.316 877.707L379.391 820.363L385.898 806.333L372.885 788.785L362.466 805.148Z" fill="#407BFF" stroke="#263238" stroke-linecap="round" stroke-linejoin="round"/>
<path d="M360.737 770.719C360.737 770.719 353.283 771.46 351.595 775.199C349.906 778.938 352.46 814.81 352.46 814.81L374.038 803.704L394.628 814.81C394.628 814.81 392.116 790.895 386.392 779.678C380.668 768.461 360.737 770.719 360.737 770.719Z" fill="white" stroke="#263238" stroke-linecap="round" stroke-linejoin="round"/>
<path d="M357.649 762.316C357.649 762.316 356.619 771.682 356.619 777.309C356.619 782.936 370.167 807.295 374.327 805.407C378.486 803.519 388.904 788.526 388.904 788.526L394.134 782.899L404.553 774.458C404.553 774.458 380.215 749.766 373.297 748.248C366.379 746.73 357.649 762.316 357.649 762.316Z" fill="white" stroke="#263238" stroke-linecap="round" stroke-linejoin="round"/>
<path d="M403.564 723.112C403.564 723.112 409.412 716.522 409.412 712.006C409.412 707.489 397.717 702.158 391.869 702.158C386.021 702.158 360.449 703.454 351.677 710.71C347.154 714.767 343.843 719.785 342.05 725.298C340.258 730.812 340.042 736.643 341.424 742.251C344.347 753.357 353.119 763.278 362.014 763.945C370.908 764.611 376.632 755.393 378.115 752.098C382.805 743.864 388.174 735.957 394.175 728.442C396.686 725.908 399.94 724.06 403.564 723.112Z" fill="#263238" stroke="#263238" stroke-linecap="round" stroke-linejoin="round"/>
<path d="M402.164 718.521L408.753 736.254V740.844L418.265 749.396L410.935 757.281L411.677 774.384L395.205 775.458C391.303 775.718 387.411 774.844 384.104 772.964C380.797 771.085 378.25 768.299 376.838 765.018L372.72 755.985C370.765 755.199 369.122 753.895 368.011 752.249C366.9 750.602 366.374 748.69 366.502 746.767C366.502 739.548 365.761 736.92 370.126 736.92C373.342 737.019 376.534 737.454 379.639 738.216L384.045 736.254L383.304 729.664L389.892 725.074L390.593 718.521H402.164Z" fill="white" stroke="#263238" stroke-linecap="round" stroke-linejoin="round"/>
<path d="M326.393 922.538L307.656 1202.63H327.463L374.326 989.026H383.715L426.419 1202.63L446.226 1201.67L427.49 922.538H326.393Z" fill="#263238" stroke="#263238" stroke-linecap="round" stroke-linejoin="round"/>
<path d="M301.397 797.929L279.16 868.267L226.943 832.95L216.813 845.463L284.225 904.695L317.169 873.931C317.169 873.931 305.927 816.291 301.397 797.929Z" fill="white" stroke="#263238" stroke-linecap="round" stroke-linejoin="round"/>
<path d="M428.272 797.855L384.045 870.895L308.438 904.213L311.98 915.875L412.13 897.994L443.797 851.46C443.797 851.46 457.098 801.335 428.272 797.855Z" fill="white" stroke="#263238" stroke-linecap="round" stroke-linejoin="round"/>
<path d="M226.943 832.95L220.643 818.142L204.171 811.33L197.829 813.588L205.406 818.142L190.211 813.588L181.357 805.629L175.015 806.74L186.422 829.544L216.813 845.463L226.943 832.95Z" fill="white" stroke="#263238" stroke-linecap="round" stroke-linejoin="round"/>
<path d="M308.438 904.213L288.219 898.438L272.776 906.99L271.417 912.987L279.818 909.803L267.217 918.688L254.904 920.946L252.475 926.314L279.9 930.349L311.444 916.356L308.438 904.213Z" fill="white" stroke="#263238" stroke-linecap="round" stroke-linejoin="round"/>
<path d="M307.656 1202.63L293.737 1220.22L273.724 1236.28H327.422L327.464 1202.63H307.656Z" fill="#263238" stroke="#263238" stroke-linecap="round" stroke-linejoin="round"/>
<path d="M446.227 1201.67L460.145 1220.22L480.159 1236.28H426.46L426.419 1202.63L446.227 1201.67Z" fill="#263238" stroke="#263238" stroke-linecap="round" stroke-linejoin="round"/>
<path d="M175.798 706.638H157.102V1028.34H175.798V706.638Z" fill="#263238" stroke="#263238" stroke-linecap="round" stroke-linejoin="round"/>
<path d="M189.922 706.638H171.227V1028.34H189.922V706.638Z" fill="white" stroke="#263238" stroke-linecap="round" stroke-linejoin="round"/>
<path d="M198.035 1028.34H146.271V1041.04H198.035V1028.34Z" fill="#263238" stroke="#263238" stroke-linecap="round" stroke-linejoin="round"/>
<path d="M157.267 887.295L75.689 1234.28H91.3374L166.656 907.027L157.267 887.295Z" fill="#263238" stroke="#263238" stroke-linecap="round" stroke-linejoin="round"/>
<path d="M172.174 1034.67L215.289 1231.43H231.02L187.081 1035.38L172.174 1034.67Z" fill="#263238" stroke="#263238" stroke-linecap="round" stroke-linejoin="round"/>
<path d="M592.045 1436.49L573.349 1446.37V1530.41H638.784V1444.89L617.329 1437.01L592.045 1436.49Z" fill="white" stroke="#263238" stroke-linecap="round" stroke-linejoin="round"/>
<path d="M587.103 1440.08V1531.52H511.785L532.663 1461.81C532.663 1461.81 582.697 1438.97 587.103 1440.08Z" fill="#407BFF" stroke="#263238" stroke-linecap="round" stroke-linejoin="round"/>
<path d="M550.782 1530.89V1490.35" stroke="#263238" stroke-linecap="round" stroke-linejoin="round"/>
<path d="M626.677 1440.08V1531.52H701.996L681.076 1461.81C681.076 1461.81 631.084 1438.97 626.677 1440.08Z" fill="#407BFF" stroke="#263238" stroke-linecap="round" stroke-linejoin="round"/>
<path d="M662.957 1530.89V1490.35" stroke="#263238" stroke-linecap="round" stroke-linejoin="round"/>
<path d="M597.11 1427.6C597.11 1427.6 588.298 1428.6 586.115 1433.53C583.932 1438.45 575.655 1479.5 575.655 1479.5L596.575 1470.1L606.458 1476.02L618.565 1469.1L638.867 1484.95C638.867 1484.95 633.925 1437.97 624.042 1428.6C614.159 1419.24 597.11 1427.6 597.11 1427.6Z" fill="white" stroke="#263238" stroke-linecap="round" stroke-linejoin="round"/>
<path d="M594.763 1425.64C595.001 1437.87 595.922 1450.07 597.522 1462.22C599.746 1474.06 606.334 1477.51 610.164 1474.06C613.994 1470.62 615.682 1461.22 615.682 1461.22L621.159 1426.12L594.763 1425.64Z" fill="white" stroke="#263238" stroke-linecap="round" stroke-linejoin="round"/>
<path d="M608.517 1376.22C623.095 1376.22 634.913 1365.59 634.913 1352.49C634.913 1339.38 623.095 1328.76 608.517 1328.76C593.938 1328.76 582.12 1339.38 582.12 1352.49C582.12 1365.59 593.938 1376.22 608.517 1376.22Z" fill="#263238" stroke="#263238" stroke-linecap="round" stroke-linejoin="round"/>
<path d="M577.179 1387.07C577.179 1387.07 567.295 1378.66 565.648 1391.03C564.001 1403.39 579.402 1405.83 579.402 1405.83L577.179 1387.07Z" fill="white" stroke="#263238" stroke-linecap="round" stroke-linejoin="round"/>
<path d="M639.607 1387.07C639.607 1387.07 649.532 1378.66 651.179 1391.03C652.826 1403.39 637.425 1405.83 637.425 1405.83L639.607 1387.07Z" fill="white" stroke="#263238" stroke-linecap="round" stroke-linejoin="round"/>
<path d="M642.408 1385.47C642.408 1406.24 627.419 1432.3 608.929 1432.3C590.439 1432.3 575.408 1406.39 575.408 1385.47C575.408 1364.56 590.398 1347.82 608.929 1347.82C627.46 1347.82 642.408 1364.67 642.408 1385.47Z" fill="white" stroke="#263238" stroke-linecap="round" stroke-linejoin="round"/>
<path d="M633.801 1360.15C631.651 1362.66 630.365 1365.68 630.101 1368.84C629.838 1371.99 630.609 1375.15 632.319 1377.92C634.147 1382.23 637.784 1385.73 642.449 1387.66C642.449 1386.92 642.449 1386.18 642.449 1385.47C642.601 1376.43 639.575 1367.56 633.801 1360.15Z" fill="#263238" stroke="#263238" stroke-linecap="round" stroke-linejoin="round"/>
<path d="M633.719 1360.04C630.972 1356.39 627.3 1353.38 623.004 1351.25C618.708 1349.13 613.912 1347.95 609.011 1347.82C590.48 1347.82 575.49 1364.67 575.49 1385.47C595.052 1381.25 613.468 1373.53 629.642 1362.78L633.719 1360.04Z" fill="#263238" stroke="#263238" stroke-linecap="round" stroke-linejoin="round"/>
<path d="M487.406 1425.6H346.488V1513.12H487.406V1425.6Z" fill="#263238" stroke="#263238" stroke-linecap="round" stroke-linejoin="round"/>
<path d="M464.222 1448.93H364.113V1513.08H464.222V1448.93Z" fill="#474747" stroke="#263238" stroke-linecap="round" stroke-linejoin="round"/>
<path d="M423.454 1488.94H403.976V1533.11H423.454V1488.94Z" fill="#B5B5B5" stroke="#263238" stroke-linecap="round" stroke-linejoin="round"/>
<path d="M844.025 1537.37H309.097V1789.84H844.025V1537.37Z" fill="#407BFF" stroke="#263238" stroke-linecap="round" stroke-linejoin="round"/>
<path d="M819.235 1503.23H675.352V1534.74H819.235V1503.23Z" fill="white" stroke="#263238" stroke-linecap="round" stroke-linejoin="round"/>
<path d="M856.503 1531.07H302.426V1543.14H856.503V1531.07Z" fill="#263238" stroke="#263238" stroke-linecap="round" stroke-linejoin="round"/>
<path d="M618.07 1598.56H540.858C529.191 1598.56 519.732 1607.06 519.732 1617.55V1686.96C519.732 1697.45 529.191 1705.96 540.858 1705.96H618.07C629.737 1705.96 639.196 1697.45 639.196 1686.96V1617.55C639.196 1607.06 629.737 1598.56 618.07 1598.56Z" fill="#263238"/>
<path d="M565.1 1589.21L509.338 1639.34C501.41 1646.47 501.41 1658.02 509.338 1665.15L565.1 1715.28C573.029 1722.41 585.883 1722.41 593.811 1715.28L649.573 1665.15C657.502 1658.02 657.502 1646.47 649.573 1639.34L593.811 1589.21C585.883 1582.08 573.028 1582.08 565.1 1589.21Z" fill="white"/>
<path d="M579.444 1686.15C600.276 1686.15 617.164 1670.97 617.164 1652.24C617.164 1633.51 600.276 1618.33 579.444 1618.33C558.611 1618.33 541.723 1633.51 541.723 1652.24C541.723 1670.97 558.611 1686.15 579.444 1686.15Z" fill="#263238"/>
<path d="M1053.3 1513.3H1580.41C1583.91 1513.34 1587.26 1514.61 1589.74 1516.84C1592.21 1519.06 1593.62 1522.07 1593.67 1525.22V1789.73H1039.88V1525.22C1039.91 1522.05 1041.34 1519.01 1043.86 1516.78C1046.37 1514.54 1049.77 1513.29 1053.3 1513.3Z" fill="#7D7D7D" stroke="#263238" stroke-linecap="round" stroke-linejoin="round"/>
<path d="M1053.3 1650.72H1580.41C1583.97 1650.72 1587.38 1651.99 1589.9 1654.26C1592.42 1656.52 1593.83 1659.59 1593.83 1662.79V1789.88H1039.88V1662.79C1039.87 1661.2 1040.22 1659.63 1040.89 1658.17C1041.56 1656.7 1042.55 1655.37 1043.8 1654.25C1045.05 1653.12 1046.53 1652.24 1048.16 1651.63C1049.79 1651.03 1051.54 1650.72 1053.3 1650.72Z" fill="#7D7D7D" stroke="#263238" stroke-linecap="round" stroke-linejoin="round"/>
<path d="M1038.81 1686.78H1593.67" stroke="#263238" stroke-linecap="round" stroke-linejoin="round"/>
<path d="M1011.01 1617.77H1074.18C1077.74 1617.77 1081.16 1619.05 1083.67 1621.31C1086.19 1623.57 1087.6 1626.64 1087.6 1629.84V1790.07H997.585V1629.66C997.629 1626.49 999.064 1623.46 1001.58 1621.23C1004.09 1619.01 1007.48 1617.76 1011.01 1617.77Z" fill="#7D7D7D" stroke="#263238" stroke-linecap="round" stroke-linejoin="round"/>
<path d="M1562.08 1617.77H1625.25C1628.8 1617.77 1632.2 1619.04 1634.71 1621.3C1637.22 1623.55 1638.63 1626.61 1638.63 1629.81V1790.03H1548.7V1629.66C1548.74 1626.49 1550.17 1623.47 1552.68 1621.25C1555.18 1619.02 1558.56 1617.77 1562.08 1617.77Z" fill="#7D7D7D" stroke="#263238" stroke-linecap="round" stroke-linejoin="round"/>
<path d="M1700.49 1524.52C1700.49 1524.52 1680.97 1536.7 1680.97 1587.45V1695.52H1723.26V1520.15L1700.49 1524.52Z" fill="#7D7D7D" stroke="#263238" stroke-linecap="round" stroke-linejoin="round"/>
<path d="M1713.87 1513.3H1759.7C1763.26 1513.3 1766.68 1514.57 1769.2 1516.84C1771.71 1519.1 1773.13 1522.17 1773.13 1525.37V1789.88H1700.49V1525.22C1700.52 1522.05 1701.94 1519.02 1704.45 1516.79C1706.96 1514.56 1710.34 1513.3 1713.87 1513.3Z" fill="#7D7D7D" stroke="#263238" stroke-linecap="round" stroke-linejoin="round"/>
<path d="M1518.72 1617.77H1759.7C1763.26 1617.77 1766.68 1619.05 1769.2 1621.31C1771.71 1623.57 1773.13 1626.64 1773.13 1629.84V1790.07H1505.46V1629.66C1505.5 1626.51 1506.91 1623.51 1509.39 1621.28C1511.87 1619.06 1515.22 1617.8 1518.72 1617.77Z" fill="#7D7D7D" stroke="#263238" stroke-linecap="round" stroke-linejoin="round"/>
<path d="M1144.84 663.102H1114.58V1250.17H1144.84V663.102Z" fill="#407BFF"/>
<path d="M2030.17 1233.43H57.6519V1266.75H2030.17V1233.43Z" fill="#407BFF"/>
<path d="M60.3696 1789.88H2029.47" stroke="#263238" stroke-linecap="round" stroke-linejoin="round"/>
<path d="M2030.17 633.708H57.6519V667.026H2030.17V633.708Z" fill="#407BFF"/>
<path d="M1225.63 1404.85V1345.28H1237.76L1259.94 1377.74H1254.66L1276.75 1345.28H1288.89V1404.85H1272.32V1372.72L1274.75 1373.39L1262.61 1390.8H1251.9L1239.85 1373.39L1242.2 1372.72V1404.85H1225.63ZM1318.51 1405.86C1313.99 1405.86 1309.95 1404.94 1306.38 1403.1C1302.86 1401.2 1300.07 1398.61 1298.01 1395.32C1296 1392.02 1295 1388.31 1295 1384.19C1295 1380.06 1296 1376.38 1298.01 1373.14C1300.02 1369.91 1302.78 1367.37 1306.29 1365.53C1309.86 1363.63 1313.91 1362.68 1318.43 1362.68C1322.95 1362.68 1326.96 1363.63 1330.48 1365.53C1333.99 1367.37 1336.75 1369.91 1338.76 1373.14C1340.82 1376.38 1341.86 1380.06 1341.86 1384.19C1341.86 1388.31 1340.85 1392.02 1338.84 1395.32C1336.84 1398.61 1334.07 1401.2 1330.56 1403.1C1327.05 1404.94 1323.03 1405.86 1318.51 1405.86ZM1318.43 1391.47C1319.82 1391.47 1321.02 1391.19 1322.03 1390.63C1323.09 1390.02 1323.89 1389.18 1324.45 1388.12C1325.01 1387 1325.29 1385.72 1325.29 1384.27C1325.29 1382.82 1324.98 1381.56 1324.37 1380.5C1323.81 1379.39 1323.03 1378.55 1322.03 1377.99C1321.02 1377.38 1319.82 1377.07 1318.43 1377.07C1317.09 1377.07 1315.89 1377.38 1314.83 1377.99C1313.83 1378.61 1313.02 1379.47 1312.4 1380.59C1311.84 1381.65 1311.57 1382.9 1311.57 1384.35C1311.57 1385.75 1311.84 1387 1312.4 1388.12C1313.02 1389.18 1313.83 1390.02 1314.83 1390.63C1315.89 1391.19 1317.09 1391.47 1318.43 1391.47ZM1346.95 1404.85V1363.69H1363.35V1404.85H1346.95ZM1363.35 1382.6L1355.74 1375.82C1357.86 1371.36 1360.31 1368.09 1363.1 1366.03C1365.95 1363.91 1369.49 1362.85 1373.73 1362.85C1375.62 1362.85 1377.24 1363.07 1378.58 1363.52C1379.98 1363.96 1381.09 1364.61 1381.93 1365.44L1372.72 1378.5C1372.33 1378.05 1371.75 1377.69 1370.97 1377.41C1370.24 1377.07 1369.38 1376.91 1368.37 1376.91C1366.7 1376.91 1365.44 1377.41 1364.61 1378.41C1363.77 1379.36 1363.35 1380.76 1363.35 1382.6ZM1409 1405.69C1406.54 1405.69 1404.23 1405.3 1402.05 1404.52C1399.87 1403.68 1398.03 1402.54 1396.53 1401.09C1395.02 1399.64 1394.05 1397.96 1393.6 1396.07V1373.31C1394.05 1371.41 1395.02 1369.68 1396.53 1368.12C1398.03 1366.5 1399.87 1365.22 1402.05 1364.27C1404.23 1363.32 1406.54 1362.85 1409 1362.85C1413.07 1362.85 1416.61 1363.77 1419.62 1365.61C1422.69 1367.4 1425.06 1369.91 1426.73 1373.14C1428.46 1376.38 1429.33 1380.09 1429.33 1384.27C1429.33 1388.45 1428.46 1392.16 1426.73 1395.4C1425.06 1398.58 1422.69 1401.09 1419.62 1402.93C1416.61 1404.77 1413.07 1405.69 1409 1405.69ZM1383.64 1422.43V1363.69H1400.04V1373.81L1397.36 1383.77L1399.62 1393.81V1422.43H1383.64ZM1405.9 1391.3C1407.24 1391.3 1408.44 1390.99 1409.5 1390.38C1410.56 1389.76 1411.37 1388.93 1411.92 1387.87C1412.54 1386.81 1412.84 1385.61 1412.84 1384.27C1412.84 1382.88 1412.54 1381.68 1411.92 1380.67C1411.37 1379.61 1410.56 1378.78 1409.5 1378.16C1408.49 1377.55 1407.32 1377.24 1405.98 1377.24C1404.64 1377.24 1403.44 1377.55 1402.38 1378.16C1401.38 1378.72 1400.57 1379.53 1399.96 1380.59C1399.4 1381.65 1399.12 1382.88 1399.12 1384.27C1399.12 1385.61 1399.4 1386.81 1399.96 1387.87C1400.52 1388.93 1401.3 1389.76 1402.3 1390.38C1403.36 1390.99 1404.56 1391.3 1405.9 1391.3ZM1460.9 1404.85V1381.76C1460.9 1380.14 1460.43 1378.91 1459.48 1378.08C1458.59 1377.19 1457.44 1376.74 1456.05 1376.74C1455.1 1376.74 1454.24 1376.93 1453.46 1377.32C1452.73 1377.72 1452.15 1378.3 1451.7 1379.08C1451.31 1379.81 1451.11 1380.7 1451.11 1381.76L1444.75 1378.91C1444.75 1375.57 1445.42 1372.69 1446.76 1370.3C1448.16 1367.9 1450.05 1366.06 1452.45 1364.77C1454.91 1363.49 1457.75 1362.85 1460.99 1362.85C1464.33 1362.85 1467.23 1363.52 1469.69 1364.86C1472.14 1366.14 1474.01 1367.93 1475.3 1370.21C1476.63 1372.44 1477.3 1375.04 1477.3 1377.99V1404.85H1460.9ZM1434.71 1404.85V1343.6H1451.11V1404.85H1434.71ZM1484.23 1404.85V1363.69H1500.63V1404.85H1484.23ZM1492.43 1359.84C1490.03 1359.84 1488.02 1359.03 1486.41 1357.41C1484.84 1355.74 1484.06 1353.7 1484.06 1351.3C1484.06 1348.9 1484.84 1346.89 1486.41 1345.28C1488.02 1343.6 1490.03 1342.77 1492.43 1342.77C1494.88 1342.77 1496.89 1343.6 1498.45 1345.28C1500.02 1346.89 1500.8 1348.9 1500.8 1351.3C1500.8 1353.7 1500.02 1355.74 1498.45 1357.41C1496.89 1359.03 1494.88 1359.84 1492.43 1359.84ZM1525.57 1405.69C1521.72 1405.69 1518.32 1404.77 1515.36 1402.93C1512.41 1401.09 1510.09 1398.58 1508.42 1395.4C1506.75 1392.16 1505.91 1388.45 1505.91 1384.27C1505.91 1380.09 1506.75 1376.38 1508.42 1373.14C1510.09 1369.91 1512.41 1367.4 1515.36 1365.61C1518.32 1363.77 1521.72 1362.85 1525.57 1362.85C1527.97 1362.85 1530.18 1363.27 1532.18 1364.1C1534.25 1364.89 1535.95 1366 1537.29 1367.45C1538.68 1368.9 1539.57 1370.58 1539.97 1372.47V1396.07C1539.57 1397.96 1538.68 1399.64 1537.29 1401.09C1535.95 1402.54 1534.25 1403.68 1532.18 1404.52C1530.18 1405.3 1527.97 1405.69 1525.57 1405.69ZM1529.25 1391.3C1531.32 1391.3 1532.96 1390.66 1534.19 1389.37C1535.47 1388.04 1536.12 1386.33 1536.12 1384.27C1536.12 1382.88 1535.84 1381.68 1535.28 1380.67C1534.72 1379.61 1533.91 1378.78 1532.85 1378.16C1531.85 1377.55 1530.68 1377.24 1529.34 1377.24C1528 1377.24 1526.8 1377.55 1525.74 1378.16C1524.74 1378.78 1523.93 1379.61 1523.31 1380.67C1522.7 1381.73 1522.39 1382.93 1522.39 1384.27C1522.39 1385.61 1522.67 1386.81 1523.23 1387.87C1523.84 1388.93 1524.68 1389.76 1525.74 1390.38C1526.8 1390.99 1527.97 1391.3 1529.25 1391.3ZM1535.61 1422.43V1393.81L1537.87 1383.77L1535.61 1373.81V1363.69H1551.6V1422.43H1535.61Z" fill="#219EBC"/>
<path d="M1575.53 1404.85V1345.28H1592.27V1404.85H1575.53ZM1589.17 1404.85V1390.63H1617.03V1404.85H1589.17ZM1641.99 1405.86C1637.97 1405.86 1634.4 1405.08 1631.28 1403.52C1628.21 1401.95 1625.79 1399.78 1624 1396.99C1622.22 1394.2 1621.32 1391.02 1621.32 1387.45V1363.69H1637.72V1387.62C1637.72 1388.45 1637.89 1389.21 1638.23 1389.88C1638.62 1390.55 1639.12 1391.08 1639.73 1391.47C1640.4 1391.8 1641.15 1391.97 1641.99 1391.97C1643.16 1391.97 1644.14 1391.58 1644.92 1390.8C1645.76 1389.96 1646.17 1388.9 1646.17 1387.62V1363.69H1662.58V1387.45C1662.58 1391.08 1661.68 1394.28 1659.9 1397.07C1658.17 1399.81 1655.74 1401.95 1652.62 1403.52C1649.55 1405.08 1646.01 1405.86 1641.99 1405.86ZM1669.32 1404.85V1363.69H1685.72V1404.85H1669.32ZM1694.67 1404.85V1381.26C1694.67 1379.86 1694.25 1378.78 1693.41 1377.99C1692.58 1377.16 1691.52 1376.74 1690.23 1376.74C1689.34 1376.74 1688.53 1376.93 1687.81 1377.32C1687.14 1377.66 1686.61 1378.16 1686.22 1378.83C1685.88 1379.5 1685.72 1380.31 1685.72 1381.26L1679.36 1378.91C1679.36 1375.57 1680.08 1372.69 1681.53 1370.3C1683.04 1367.9 1685.05 1366.06 1687.56 1364.77C1690.07 1363.49 1692.91 1362.85 1696.09 1362.85C1698.88 1362.85 1701.39 1363.52 1703.62 1364.86C1705.91 1366.2 1707.72 1368.06 1709.06 1370.46C1710.4 1372.81 1711.07 1375.6 1711.07 1378.83V1404.85H1694.67ZM1720.02 1404.85V1381.26C1720.02 1379.86 1719.6 1378.78 1718.77 1377.99C1717.93 1377.16 1716.87 1376.74 1715.59 1376.74C1714.7 1376.74 1713.89 1376.93 1713.16 1377.32C1712.49 1377.66 1711.96 1378.16 1711.57 1378.83C1711.24 1379.5 1711.07 1380.31 1711.07 1381.26L1701.45 1381.34C1701.45 1377.49 1702.2 1374.2 1703.71 1371.47C1705.27 1368.68 1707.42 1366.56 1710.15 1365.11C1712.88 1363.6 1716.01 1362.85 1719.52 1362.85C1722.81 1362.85 1725.71 1363.55 1728.22 1364.94C1730.79 1366.34 1732.8 1368.34 1734.25 1370.97C1735.7 1373.59 1736.42 1376.74 1736.42 1380.42V1404.85H1720.02ZM1764.77 1405.86C1759.97 1405.86 1755.76 1404.97 1752.13 1403.18C1748.51 1401.34 1745.66 1398.8 1743.6 1395.57C1741.59 1392.28 1740.59 1388.51 1740.59 1384.27C1740.59 1380.09 1741.56 1376.38 1743.52 1373.14C1745.52 1369.91 1748.26 1367.37 1751.72 1365.53C1755.17 1363.63 1759.08 1362.68 1763.43 1362.68C1767.73 1362.68 1771.52 1363.57 1774.81 1365.36C1778.1 1367.09 1780.67 1369.52 1782.51 1372.64C1784.41 1375.76 1785.35 1379.33 1785.35 1383.35C1785.35 1384.19 1785.3 1385.08 1785.19 1386.03C1785.13 1386.92 1784.96 1387.98 1784.68 1389.21L1747.53 1389.46V1379.42L1778.58 1379.17L1770.96 1383.6C1770.96 1381.37 1770.68 1379.56 1770.12 1378.16C1769.62 1376.71 1768.84 1375.62 1767.78 1374.9C1766.72 1374.17 1765.38 1373.81 1763.77 1373.81C1762.09 1373.81 1760.64 1374.23 1759.41 1375.07C1758.19 1375.9 1757.24 1377.1 1756.57 1378.66C1755.96 1380.23 1755.65 1382.12 1755.65 1384.35C1755.65 1386.64 1755.98 1388.57 1756.65 1390.13C1757.38 1391.63 1758.41 1392.78 1759.75 1393.56C1761.09 1394.34 1762.76 1394.73 1764.77 1394.73C1766.72 1394.73 1768.42 1394.42 1769.87 1393.81C1771.38 1393.14 1772.75 1392.11 1773.97 1390.71L1782.17 1398.83C1780.11 1401.17 1777.63 1402.93 1774.73 1404.1C1771.83 1405.27 1768.51 1405.86 1764.77 1405.86Z" fill="#FB8500"/>
<path d="M1174.91 1372.13C1185.47 1357.33 1182.96 1342.72 1179.9 1336.05C1179.55 1335.29 1179.75 1334.38 1180.4 1333.85C1190.34 1325.84 1193.38 1316.39 1193.73 1309.55C1193.81 1307.81 1196.19 1306.79 1197.06 1308.3C1201.92 1316.76 1205.34 1331.08 1195.23 1346.74C1184.36 1363.59 1177.12 1371.4 1175.08 1372.64C1174.71 1372.87 1174.65 1372.49 1174.91 1372.13Z" fill="#FB8500"/>
<path d="M1121.73 1396.09C1140.24 1416.25 1162.9 1391.68 1173.27 1374.77C1173.88 1373.77 1175.28 1373.65 1176.01 1374.56C1196.86 1400.7 1222.08 1450.37 1166.24 1453.9C1156.9 1453.38 1132.82 1444.05 1110.64 1410.98C1110.27 1410.42 1110.26 1409.69 1110.62 1409.14L1118.96 1396.27C1119.58 1395.31 1120.96 1395.25 1121.73 1396.09Z" fill="#FB8500"/>
<path d="M1092.99 1351.75C1071.37 1338.25 1051.3 1358.79 1042.31 1373.26C1041.59 1374.43 1039.83 1374.37 1039.27 1373.11C1016.15 1321.46 998.66 1246.86 1104.11 1338.31C1104.99 1339.07 1104.9 1340.53 1103.91 1341.15C1100.04 1343.57 1097.82 1346.11 1095.58 1351C1095.13 1351.97 1093.9 1352.32 1092.99 1351.75Z" fill="#FB8500"/>
<path d="M1040.51 1455.77C995.599 1442.91 1014.91 1403.96 1033.76 1381.5C1034.92 1380.13 1037.07 1381.38 1036.58 1383.11C1032.07 1399.02 1028.64 1421.47 1040.35 1422.75C1040.53 1422.77 1040.71 1422.82 1040.9 1422.85C1045.38 1423.52 1063.57 1399.84 1101.96 1368.39C1102.18 1368.21 1102.35 1367.99 1102.45 1367.73C1115.72 1335.29 1151.13 1276.53 1188.26 1297.37C1188.45 1297.47 1188.62 1297.61 1188.75 1297.78C1195.77 1307.28 1190.67 1336.48 1115.13 1379.8C1114.79 1380 1114.51 1380.32 1114.38 1380.69C1090.27 1445.29 1055.35 1457.7 1040.75 1455.82C1040.67 1455.81 1040.59 1455.8 1040.51 1455.77Z" fill="#219EBC"/>
</svg>
