<svg width="564" height="487" viewBox="0 0 564 487" fill="none" xmlns="http://www.w3.org/2000/svg">
<path d="M483.735 236.431C515.28 192.215 507.803 148.56 498.652 128.626C497.609 126.354 498.189 123.618 500.136 122.05C529.839 98.1259 538.93 69.8683 539.958 49.4435C540.219 44.2425 547.33 41.2014 549.924 45.7171C564.433 70.9776 574.652 113.769 544.449 160.573C511.979 210.892 490.348 234.231 484.26 237.945C483.132 238.633 482.968 237.506 483.735 236.431Z" fill="#FB8500"/>
<path d="M324.858 308.005C380.168 368.236 447.874 294.829 478.839 244.299C480.664 241.322 484.86 240.963 487.037 243.693C549.314 321.792 624.682 470.178 457.845 480.73C429.934 479.177 357.98 451.287 291.717 352.481C290.61 350.831 290.583 348.652 291.663 346.984L316.574 308.529C318.424 305.673 322.556 305.498 324.858 308.005Z" fill="#FB8500"/>
<path d="M238.98 175.528C174.402 135.187 114.418 196.549 87.5692 239.802C85.4058 243.287 80.1617 243.105 78.4857 239.361C9.4005 85.0357 -42.8429 -137.86 272.203 135.366C274.829 137.644 274.571 142.011 271.624 143.855C260.053 151.097 253.435 158.687 246.723 173.278C245.382 176.193 241.701 177.228 238.98 175.528Z" fill="#FB8500"/>
<path d="M82.2005 486.327C-51.9896 447.901 5.70377 331.516 62.0269 264.426C65.4803 260.312 71.9119 264.058 70.4461 269.225C56.9634 316.752 46.7273 383.831 81.7007 387.658C82.2511 387.718 82.8015 387.879 83.3492 387.961C96.7416 389.954 151.089 319.218 265.792 225.247C266.439 224.716 266.943 224.052 267.26 223.277C306.896 126.351 412.703 -49.2151 523.642 13.0483C524.198 13.3602 524.702 13.778 525.081 14.2902C546.065 42.6531 530.824 129.901 305.144 259.34C304.126 259.923 303.297 260.898 302.887 261.997C230.874 455.006 126.544 492.092 82.9024 486.474C82.6655 486.444 82.4301 486.393 82.2005 486.327Z" fill="url(#paint0_linear_154_92)"/>
<defs>
<linearGradient id="paint0_linear_154_92" x1="104.45" y1="216.179" x2="505.237" y2="83.5144" gradientUnits="userSpaceOnUse">
<stop stop-color="#023047"/>
<stop offset="1" stop-color="#219EBC"/>
</linearGradient>
</defs>
</svg>
