<svg width="507" height="107" viewBox="0 0 507 107" fill="none" xmlns="http://www.w3.org/2000/svg">
<path d="M135.611 73.6113V34.6954H143.536L158.02 55.9024H154.577L169.006 34.6954H176.932V73.6113H166.11V52.623L167.695 53.0602L159.769 64.4289H152.773L144.903 53.0602L146.433 52.623V73.6113H135.611ZM196.282 74.2672C193.33 74.2672 190.688 73.666 188.356 72.4635C186.061 71.2246 184.239 69.5303 182.891 67.3804C181.579 65.2306 180.923 62.8074 180.923 60.111C180.923 57.4146 181.579 55.0097 182.891 52.8963C184.202 50.7828 186.006 49.1249 188.302 47.9224C190.634 46.6836 193.275 46.0641 196.227 46.0641C199.178 46.0641 201.802 46.6836 204.098 47.9224C206.393 49.1249 208.197 50.7828 209.509 52.8963C210.857 55.0097 211.531 57.4146 211.531 60.111C211.531 62.8074 210.875 65.2306 209.563 67.3804C208.252 69.5303 206.448 71.2246 204.152 72.4635C201.857 73.666 199.233 74.2672 196.282 74.2672ZM196.227 64.8662C197.138 64.8662 197.921 64.684 198.577 64.3196C199.27 63.9188 199.798 63.3722 200.162 62.6799C200.527 61.9511 200.709 61.1131 200.709 60.1657C200.709 59.2183 200.508 58.3984 200.108 57.7061C199.743 56.9773 199.233 56.4308 198.577 56.0664C197.921 55.6656 197.138 55.4651 196.227 55.4651C195.352 55.4651 194.569 55.6656 193.877 56.0664C193.221 56.4672 192.692 57.032 192.292 57.7607C191.927 58.4531 191.745 59.2729 191.745 60.2203C191.745 61.1313 191.927 61.9511 192.292 62.6799C192.692 63.3722 193.221 63.9188 193.877 64.3196C194.569 64.684 195.352 64.8662 196.227 64.8662ZM214.859 73.6113V46.72H225.572V73.6113H214.859ZM225.572 59.0725L220.598 54.6453C221.983 51.7302 223.586 49.5986 225.408 48.2504C227.266 46.8657 229.58 46.1734 232.349 46.1734C233.588 46.1734 234.645 46.3192 235.52 46.6107C236.43 46.9022 237.159 47.3212 237.706 47.8678L231.694 56.3943C231.438 56.1028 231.056 55.866 230.546 55.6838C230.072 55.4651 229.507 55.3558 228.851 55.3558C227.758 55.3558 226.938 55.6838 226.392 56.3397C225.845 56.9591 225.572 57.8701 225.572 59.0725ZM255.386 74.1579C253.783 74.1579 252.271 73.9028 250.85 73.3927C249.428 72.8461 248.226 72.0991 247.242 71.1518C246.258 70.2044 245.621 69.1112 245.329 67.8723V53.0056C245.621 51.7667 246.258 50.6371 247.242 49.6168C248.226 48.5601 249.428 47.722 250.85 47.1026C252.271 46.4831 253.783 46.1734 255.386 46.1734C258.046 46.1734 260.36 46.7746 262.328 47.9771C264.332 49.1431 265.88 50.7828 266.973 52.8963C268.103 55.0097 268.668 57.4328 268.668 60.1657C268.668 62.8985 268.103 65.3217 266.973 67.4351C265.88 69.512 264.332 71.1518 262.328 72.3542C260.36 73.5567 258.046 74.1579 255.386 74.1579ZM238.825 85.0893V46.72H249.538V53.3335L247.789 59.8377L249.265 66.3966V85.0893H238.825ZM253.364 64.7569C254.238 64.7569 255.022 64.5565 255.714 64.1556C256.406 63.7548 256.935 63.2082 257.299 62.5159C257.7 61.8236 257.9 61.0402 257.9 60.1657C257.9 59.2547 257.7 58.4713 257.299 57.8154C256.935 57.1231 256.406 56.5765 255.714 56.1757C255.058 55.7749 254.293 55.5745 253.418 55.5745C252.544 55.5745 251.761 55.7749 251.068 56.1757C250.412 56.5401 249.884 57.0684 249.483 57.7607C249.119 58.4531 248.937 59.2547 248.937 60.1657C248.937 61.0402 249.119 61.8236 249.483 62.5159C249.848 63.2082 250.358 63.7548 251.014 64.1556C251.706 64.5565 252.489 64.7569 253.364 64.7569ZM289.293 73.6113V58.5259C289.293 57.4692 288.983 56.6676 288.364 56.121C287.781 55.538 287.034 55.2465 286.123 55.2465C285.503 55.2465 284.938 55.374 284.428 55.6291C283.955 55.8842 283.572 56.2668 283.281 56.7769C283.025 57.2506 282.898 57.8336 282.898 58.5259L278.744 56.6676C278.744 54.4813 279.181 52.6047 280.056 51.0379C280.967 49.4711 282.206 48.2686 283.772 47.4305C285.376 46.5925 287.234 46.1734 289.347 46.1734C291.534 46.1734 293.429 46.6107 295.032 47.4852C296.635 48.3233 297.856 49.4893 298.694 50.9833C299.568 52.4408 300.006 54.1352 300.006 56.0664V73.6113H289.293ZM272.185 73.6113V33.6023H282.898V73.6113H272.185ZM304.53 73.6113V46.72H315.243V73.6113H304.53ZM309.886 44.2058C308.319 44.2058 307.008 43.6774 305.951 42.6207C304.931 41.5276 304.42 40.1976 304.42 38.6307C304.42 37.0639 304.931 35.7521 305.951 34.6954C307.008 33.6023 308.319 33.0557 309.886 33.0557C311.489 33.0557 312.801 33.6023 313.821 34.6954C314.842 35.7521 315.352 37.0639 315.352 38.6307C315.352 40.1976 314.842 41.5276 313.821 42.6207C312.801 43.6774 311.489 44.2058 309.886 44.2058ZM331.535 74.1579C329.021 74.1579 326.798 73.5567 324.867 72.3542C322.936 71.1518 321.424 69.512 320.33 67.4351C319.237 65.3217 318.691 62.8985 318.691 60.1657C318.691 57.4328 319.237 55.0097 320.33 52.8963C321.424 50.7828 322.936 49.1431 324.867 47.9771C326.798 46.7746 329.021 46.1734 331.535 46.1734C333.102 46.1734 334.541 46.4467 335.853 46.9933C337.201 47.5034 338.313 48.2322 339.187 49.1796C340.098 50.127 340.681 51.2201 340.936 52.459V67.8723C340.681 69.1112 340.098 70.2044 339.187 71.1518C338.313 72.0991 337.201 72.8461 335.853 73.3927C334.541 73.9028 333.102 74.1579 331.535 74.1579ZM333.94 64.7569C335.288 64.7569 336.363 64.3378 337.165 63.4997C338.003 62.6252 338.422 61.5139 338.422 60.1657C338.422 59.2547 338.24 58.4713 337.875 57.8154C337.511 57.1231 336.983 56.5765 336.29 56.1757C335.634 55.7749 334.869 55.5745 333.995 55.5745C333.12 55.5745 332.337 55.7749 331.644 56.1757C330.989 56.5765 330.46 57.1231 330.059 57.8154C329.659 58.5077 329.458 59.2911 329.458 60.1657C329.458 61.0402 329.64 61.8236 330.005 62.5159C330.406 63.2082 330.952 63.7548 331.644 64.1556C332.337 64.5565 333.102 64.7569 333.94 64.7569ZM338.094 85.0893V66.3966L339.57 59.8377L338.094 53.3335V46.72H348.534V85.0893H338.094Z" fill="url(#paint0_linear_158_125)"/>
<path d="M364.168 73.6113V34.6954H375.099V73.6113H364.168ZM373.077 73.6113V64.3196H391.278V73.6113H373.077ZM407.58 74.2672C404.956 74.2672 402.624 73.7571 400.584 72.7368C398.58 71.7165 396.995 70.2955 395.829 68.4736C394.663 66.6516 394.08 64.5747 394.08 62.2426V46.72H404.792V62.3519C404.792 62.8985 404.902 63.3904 405.12 63.8277C405.375 64.2649 405.703 64.6111 406.104 64.8662C406.541 65.0848 407.033 65.1941 407.58 65.1941C408.345 65.1941 408.983 64.9391 409.493 64.4289C410.039 63.8823 410.313 63.19 410.313 62.3519V46.72H421.026V62.2426C421.026 64.6111 420.443 66.7063 419.277 68.5282C418.147 70.3137 416.562 71.7165 414.521 72.7368C412.517 73.7571 410.203 74.2672 407.58 74.2672ZM425.428 73.6113V46.72H436.141V73.6113H425.428ZM441.989 73.6113V58.198C441.989 57.287 441.716 56.5765 441.169 56.0664C440.623 55.5198 439.93 55.2465 439.092 55.2465C438.509 55.2465 437.981 55.374 437.507 55.6291C437.07 55.8477 436.724 56.1757 436.469 56.6129C436.25 57.0502 436.141 57.5786 436.141 58.198L431.987 56.6676C431.987 54.4813 432.461 52.6047 433.408 51.0379C434.392 49.4711 435.704 48.2686 437.343 47.4305C438.983 46.5925 440.841 46.1734 442.918 46.1734C444.74 46.1734 446.38 46.6107 447.837 47.4852C449.331 48.3597 450.516 49.5804 451.39 51.1472C452.265 52.6776 452.702 54.4995 452.702 56.6129V73.6113H441.989ZM458.55 73.6113V58.198C458.55 57.287 458.277 56.5765 457.73 56.0664C457.184 55.5198 456.492 55.2465 455.653 55.2465C455.07 55.2465 454.542 55.374 454.068 55.6291C453.631 55.8477 453.285 56.1757 453.03 56.6129C452.811 57.0502 452.702 57.5786 452.702 58.198L446.416 58.2527C446.416 55.7384 446.908 53.5886 447.892 51.8031C448.912 49.9812 450.315 48.5966 452.101 47.6492C453.886 46.6653 455.927 46.1734 458.222 46.1734C460.372 46.1734 462.267 46.6289 463.907 47.5398C465.583 48.4508 466.895 49.7626 467.842 51.4752C468.789 53.1878 469.263 55.2465 469.263 57.6514V73.6113H458.55ZM487.779 74.2672C484.645 74.2672 481.894 73.6842 479.526 72.5182C477.157 71.3157 475.299 69.6578 473.951 67.5444C472.639 65.3945 471.983 62.935 471.983 60.1657C471.983 57.4328 472.621 55.0097 473.896 52.8963C475.208 50.7828 476.993 49.1249 479.253 47.9224C481.512 46.6836 484.062 46.0641 486.905 46.0641C489.71 46.0641 492.188 46.6471 494.338 47.8131C496.488 48.9427 498.164 50.5278 499.366 52.5683C500.605 54.6088 501.225 56.9409 501.225 59.5644C501.225 60.111 501.188 60.694 501.115 61.3135C501.079 61.8965 500.97 62.5888 500.787 63.3904L476.52 63.5544V56.9955L496.798 56.8316L491.824 59.7284C491.824 58.2709 491.642 57.0866 491.277 56.1757C490.949 55.2283 490.439 54.5178 489.747 54.0441C489.054 53.5704 488.18 53.3335 487.123 53.3335C486.03 53.3335 485.083 53.6068 484.281 54.1534C483.479 54.6999 482.86 55.4834 482.423 56.5036C482.022 57.5239 481.821 58.7628 481.821 60.2203C481.821 61.7143 482.04 62.9714 482.477 63.9917C482.951 64.9755 483.625 65.7225 484.5 66.2326C485.374 66.7427 486.467 66.9978 487.779 66.9978C489.054 66.9978 490.166 66.7974 491.113 66.3966C492.097 65.9593 492.99 65.2852 493.791 64.3743L499.148 69.676C497.8 71.2064 496.178 72.3542 494.283 73.1194C492.389 73.8846 490.22 74.2672 487.779 74.2672Z" fill="#FB8500"/>
<path d="M105.758 52.0708C112.655 42.4039 111.021 32.8597 109.02 28.5015C108.792 28.0049 108.919 27.4067 109.344 27.0639C115.838 21.8334 117.826 15.6555 118.05 11.1901C118.108 10.053 119.662 9.38808 120.229 10.3753C123.401 15.898 125.636 25.2534 119.032 35.4861C111.933 46.4873 107.204 51.59 105.873 52.4019C105.627 52.5522 105.591 52.3058 105.758 52.0708Z" fill="#FB8500"/>
<path d="M71.0232 67.7189C83.1157 80.8871 97.918 64.8382 104.688 53.791C105.087 53.1401 106.004 53.0615 106.48 53.6584C120.096 70.7331 136.573 103.174 100.098 105.481C93.9959 105.142 78.2646 99.0443 63.7776 77.4427C63.5356 77.0819 63.5297 76.6054 63.7659 76.2408L69.212 67.8335C69.6166 67.209 70.5199 67.1709 71.0232 67.7189Z" fill="#FB8500"/>
<path d="M52.2479 38.7554C38.1294 29.9356 25.0151 43.3511 19.1452 52.8075C18.6722 53.5694 17.5257 53.5295 17.1593 52.711C2.05527 18.9711 -9.36664 -29.7603 59.5115 29.9748C60.0856 30.4728 60.0291 31.4275 59.3849 31.8307C56.8551 33.414 55.4081 35.0734 53.9407 38.2635C53.6476 38.9007 52.8428 39.127 52.2479 38.7554Z" fill="#FB8500"/>
<path d="M17.9714 106.705C-11.3664 98.3038 1.24701 72.8589 13.5609 58.1909C14.3159 57.2916 15.722 58.1105 15.4015 59.2402C12.4538 69.631 10.2159 84.2963 17.8621 85.1331C17.9825 85.1462 18.1028 85.1815 18.2225 85.1993C21.1505 85.6351 33.0325 70.1701 58.1096 49.6253C58.2512 49.5094 58.3614 49.364 58.4306 49.1947C67.0962 28.0038 90.2288 -10.38 114.483 3.23262C114.605 3.3008 114.715 3.39215 114.798 3.50414C119.385 9.70507 116.053 28.7799 66.7132 57.079C66.4907 57.2066 66.3095 57.4197 66.2198 57.66C50.4757 99.8573 27.6661 107.965 18.1248 106.737C18.0731 106.73 18.0216 106.719 17.9714 106.705Z" fill="url(#paint1_linear_158_125)"/>
<defs>
<linearGradient id="paint0_linear_158_125" x1="127.242" y1="53.8345" x2="507" y2="53.8345" gradientUnits="userSpaceOnUse">
<stop stop-color="#023047"/>
<stop offset="1" stop-color="#219EBC"/>
</linearGradient>
<linearGradient id="paint1_linear_158_125" x1="22.8358" y1="47.6429" x2="110.459" y2="18.6385" gradientUnits="userSpaceOnUse">
<stop stop-color="#023047"/>
<stop offset="1" stop-color="#219EBC"/>
</linearGradient>
</defs>
</svg>
